<?xml version="1.0" standalone="no"?>
<!DOCTYPE svg PUBLIC "-//W3C//DTD SVG 20010904//EN"
 "http://www.w3.org/TR/2001/REC-SVG-20010904/DTD/svg10.dtd">
<svg version="1.0" xmlns="http://www.w3.org/2000/svg"
 width="300.000000pt" height="169.000000pt" viewBox="0 0 300.000000 169.000000"
 preserveAspectRatio="xMidYMid meet">
<metadata>
Created by potrace 1.10, written by Peter Selinger 2001-2011
</metadata>
<g transform="translate(0.000000,169.000000) scale(0.100000,-0.100000)"
fill="#000000" stroke="none">
<path d="M205 1680 c-3 -5 -8 -65 -10 -132 -10 -287 -23 -506 -31 -519 -7 -12
56 -69 76 -69 11 0 23 -7 26 -15 3 -8 21 -19 40 -25 19 -6 34 -15 34 -20 0 -5
10 -12 23 -16 12 -4 33 -15 46 -25 13 -10 28 -16 33 -13 13 8 39 -28 32 -46
-3 -8 -7 -26 -8 -40 -9 -88 -31 -217 -40 -228 -7 -9 -6 -16 3 -21 10 -6 10
-17 3 -44 -7 -24 -7 -38 1 -46 14 -14 44 -14 53 0 5 8 -1 10 -20 7 -14 -3 -26
-1 -26 3 0 5 4 9 10 9 5 0 7 7 4 15 -4 8 0 23 7 32 11 13 11 17 1 20 -6 3 -9
10 -5 16 4 7 9 21 10 32 2 11 7 21 12 23 5 2 7 12 4 23 -5 18 15 175 24 192 2
4 17 -2 33 -13 32 -23 60 -26 60 -7 0 9 2 9 8 0 5 -7 3 -61 -3 -120 -6 -59
-10 -115 -10 -125 1 -10 -1 -18 -5 -18 -4 0 -10 -34 -14 -77 -4 -42 -10 -89
-13 -105 -5 -27 -7 -28 -23 -13 -17 15 -19 15 -24 -2 -3 -10 -8 -34 -10 -52
-2 -19 -11 -40 -20 -46 -9 -7 -13 -14 -10 -18 3 -3 -1 -18 -10 -34 -12 -25
-13 -30 -1 -30 8 0 13 3 11 6 -2 3 0 15 5 26 6 17 8 17 8 3 1 -20 51 -26 51
-7 0 6 -9 8 -22 4 -17 -6 -20 -4 -15 10 4 9 7 26 7 38 0 20 0 20 16 1 15 -18
15 -18 5 3 -6 12 -11 34 -11 48 l0 26 30 -21 c17 -12 30 -17 30 -12 0 6 -7 13
-16 16 -8 3 -12 11 -9 16 5 8 12 7 23 -2 13 -11 15 -10 9 11 -3 13 -1 34 4 48
6 18 6 22 -3 17 -7 -5 -9 -2 -5 9 3 8 8 31 11 49 3 18 12 78 21 133 9 55 18
115 21 133 5 33 5 33 30 17 14 -9 32 -14 40 -11 8 3 14 1 14 -4 0 -6 6 -10 14
-10 10 0 16 19 21 61 7 57 3 80 -11 66 -3 -3 -7 -17 -8 -31 0 -14 -7 -28 -13
-31 -7 -2 -13 -11 -13 -20 0 -18 -11 -19 -45 -3 -16 7 -24 17 -21 27 12 45 17
133 7 127 -6 -4 -11 -20 -11 -36 0 -15 -6 -31 -12 -33 -10 -4 -10 -6 -1 -6 7
-1 10 -8 7 -16 -4 -8 -10 -12 -15 -9 -13 8 -11 42 3 46 9 3 9 6 0 12 -7 4 -14
-3 -18 -21 -10 -43 -13 -44 -54 -21 -38 22 -38 22 -34 78 3 39 2 49 -5 35 -5
-11 -10 -35 -10 -52 -1 -18 -6 -33 -12 -33 -5 0 -7 5 -3 12 4 6 3 8 -3 5 -6
-4 -13 7 -17 25 -5 27 -8 29 -19 15 -11 -14 -25 -8 -129 56 -101 62 -115 73
-96 80 12 4 27 6 33 3 7 -2 18 0 26 5 9 6 10 9 2 9 -9 0 -10 15 -6 52 7 58 18
74 57 84 22 5 25 3 20 -11 -4 -10 -14 -15 -25 -12 -11 3 -19 1 -19 -4 0 -5 12
-9 26 -9 22 0 24 -3 19 -22 -5 -18 -4 -20 4 -8 6 8 11 30 11 47 0 32 1 32 27
20 21 -9 27 -9 31 1 2 6 10 12 17 12 8 0 16 4 19 9 3 5 -5 8 -18 7 -13 0 -22
-4 -20 -7 2 -4 -3 -9 -11 -13 -12 -4 -15 5 -15 49 0 41 4 55 14 55 8 0 17 -8
19 -17 4 -14 5 -14 6 3 1 17 10 23 37 29 20 3 38 4 41 1 11 -11 -8 -96 -22
-96 -9 0 -12 -6 -8 -16 3 -9 1 -19 -4 -23 -7 -4 -6 -11 3 -19 12 -11 14 -8 14
18 0 43 29 41 31 -2 2 -31 2 -31 6 -5 6 39 23 33 23 -8 0 -24 -5 -35 -15 -35
-8 0 -15 -4 -15 -10 0 -5 21 2 46 15 26 14 61 25 78 25 17 0 38 5 46 11 12 8
11 9 -6 4 -18 -5 -21 -2 -16 20 2 14 11 25 18 25 8 0 14 4 14 9 0 5 8 12 18
14 11 3 11 4 -3 2 -11 -1 -27 -4 -35 -6 -12 -3 -14 6 -12 45 2 46 22 80 31 55
2 -6 -2 -15 -9 -19 -9 -5 -8 -8 2 -12 7 -3 19 1 26 8 7 8 8 14 2 14 -5 0 -10
6 -10 14 0 9 15 15 45 18 40 3 45 1 45 -18 0 -47 -13 -84 -29 -84 -14 0 -14
-2 -1 -10 9 -6 17 -5 22 3 5 8 9 5 14 -8 4 -11 9 -24 11 -28 3 -4 -6 -5 -19
-2 -12 3 -41 -1 -63 -10 l-40 -15 35 6 c19 3 52 8 73 9 21 2 46 10 55 18 9 8
33 19 52 25 19 5 44 13 54 18 13 5 17 4 13 -3 -5 -7 1 -9 15 -5 l22 5 -22 8
c-19 7 -22 16 -22 64 0 45 3 55 18 56 9 1 -1 5 -23 11 -22 5 -55 6 -73 3 l-34
-6 4 47 c3 42 7 49 28 54 l25 6 -27 7 c-36 9 -36 23 0 35 25 10 25 10 4 11
-20 1 -22 6 -20 46 1 47 2 47 66 60 21 4 32 3 32 -5 0 -7 6 -5 16 4 19 19 34
21 34 3 0 -7 -10 -17 -22 -22 -22 -10 -23 -16 -24 -125 0 -63 1 -86 3 -50 2
35 9 70 15 77 7 9 7 13 -1 13 -18 0 -9 74 9 78 13 2 15 -22 14 -170 -1 -95 1
-147 3 -115 l4 57 34 0 c18 0 40 3 48 6 13 4 15 -4 14 -45 l-1 -51 -53 -15
c-29 -9 -53 -18 -53 -21 0 -6 27 1 86 22 23 8 41 20 41 27 0 7 1 29 1 51 2 35
4 38 27 34 13 -3 26 -1 27 4 2 4 27 12 56 17 52 8 53 7 48 -13 -3 -11 -6 -28
-6 -37 0 -9 -14 -21 -32 -27 -31 -11 -32 -11 -3 -5 17 3 47 6 68 4 20 -1 37 3
37 9 0 6 -10 8 -25 4 -24 -6 -25 -4 -25 35 0 34 3 41 20 41 25 0 27 -27 3 -33
-17 -4 -17 -5 0 -6 9 0 17 -5 17 -10 0 -5 18 -8 40 -7 26 0 34 3 24 9 -8 4
-23 6 -33 2 -14 -4 -18 0 -19 24 -1 27 3 30 41 36 23 4 50 9 59 11 12 4 18 -3
21 -23 l4 -28 2 28 c1 21 6 27 24 28 16 1 17 3 5 6 -14 3 -18 19 -21 81 l-3
77 -2 -75 -2 -75 -60 -2 -60 -2 -2 112 c-1 61 -3 93 -5 71 -3 -31 -9 -43 -23
-47 -21 -5 -26 4 -26 51 1 17 -2 32 -6 32 -5 0 -8 -16 -8 -35 0 -22 -6 -38
-15 -41 -8 -4 -12 -10 -9 -15 3 -5 -5 -13 -18 -18 -21 -9 -21 -10 -3 -11 20
-1 20 -1 0 -10 -20 -8 -19 -9 1 -9 19 -1 21 -6 18 -48 -1 -27 3 -13 9 30 7 44
15 75 20 71 4 -4 8 -39 9 -78 l2 -71 3 65 c4 57 13 79 34 80 3 0 4 -35 3 -77
-3 -73 -5 -78 -27 -84 -14 -4 -30 -3 -37 1 -6 4 -32 5 -56 2 l-43 -5 -4 129
-3 129 -2 -142 -2 -142 -80 1 -80 1 2 44 c1 35 6 47 22 53 14 6 16 9 6 11 -8
1 -19 1 -23 0 -7 -1 1 138 8 146 1 2 22 6 47 9 40 6 47 4 51 -12 4 -16 5 -15
6 4 1 22 -2 23 -56 20 -32 -1 -61 -7 -64 -12 -6 -8 -39 -10 -79 -5 -8 1 -27
-2 -42 -6 -21 -5 -27 -3 -31 12 -3 10 -6 -17 -7 -59 -3 -106 -3 -103 -29 -100
-14 1 -21 -2 -18 -10 2 -7 14 -11 27 -10 18 3 21 0 16 -13 -3 -9 -6 -41 -6
-70 l0 -54 -70 1 -70 0 0 43 c0 36 4 44 23 49 43 11 47 8 42 -36 -3 -33 -2
-37 4 -18 5 14 9 38 10 54 1 16 6 58 12 92 9 51 15 65 32 70 19 7 18 9 -13 15
-19 5 -49 6 -67 3 -30 -6 -32 -4 -36 28 -3 26 -4 24 -5 -14 -2 -47 -12 -57
-47 -48 -5 2 -28 2 -50 2 l-40 -1 3 39 c3 26 10 40 20 43 12 3 10 5 -5 6 -20
1 -23 -4 -24 -41 -1 -24 -1 -51 0 -60 2 -17 -18 -25 -44 -18 -5 2 -27 2 -49 2
l-38 -1 5 35 c12 70 55 84 50 16 -2 -29 -1 -33 6 -17 5 11 10 34 10 52 l1 32
-52 -3 -52 -3 -2 -39 c-1 -22 -2 -53 -3 -70 -1 -30 -3 -31 -47 -31 l-46 0 6
35 c5 35 19 52 43 52 9 0 10 -7 4 -23 -5 -13 -6 -29 -1 -36 4 -8 10 6 14 35 4
27 9 57 12 66 4 15 1 15 -26 5 -25 -10 -33 -9 -40 3 -8 11 -10 8 -10 -15 0
-16 -2 -57 -4 -90 -4 -53 -7 -60 -26 -63 -12 -2 -26 0 -31 5 -8 8 -1 64 17
146 6 26 4 27 -29 27 -20 0 -39 -4 -42 -10z m65 -14 c0 -14 -21 -26 -46 -26
-8 0 -14 6 -14 14 0 13 9 17 53 25 4 0 7 -5 7 -13z m180 -5 c-5 -11 -10 -42
-10 -70 0 -32 -4 -51 -11 -51 -15 0 -4 107 13 127 16 19 20 16 8 -6z m360 -61
c0 -5 -10 -11 -22 -11 -17 -1 -19 -2 -5 -6 25 -6 22 -49 -5 -67 -21 -15 -21
-16 -3 -17 11 0 14 -3 7 -6 -6 -2 -10 -8 -7 -12 2 -5 -9 -8 -25 -7 -19 1 -28
5 -26 13 3 7 0 15 -6 19 -7 4 -8 3 -4 -4 4 -7 5 -12 2 -12 -2 0 -11 -3 -20 -6
-13 -5 -16 1 -16 27 0 39 -14 67 -24 50 -4 -6 -3 -11 2 -11 12 0 12 -32 -1
-47 -5 -7 -18 -13 -28 -13 -10 0 -21 -5 -25 -12 -5 -8 0 -9 14 -6 12 4 22 2
22 -3 0 -5 -8 -9 -17 -9 -16 0 -16 -2 -3 -10 12 -8 9 -10 -10 -6 -63 10 -72
17 -68 52 5 43 -6 44 -18 2 -7 -23 -19 -35 -44 -45 -28 -10 -29 -12 -7 -8 26
5 27 4 15 -15 -7 -11 -18 -18 -24 -16 -20 8 -34 -17 -32 -58 l1 -41 4 38 c3
29 10 40 29 47 14 6 27 10 29 10 2 0 1 -19 -1 -42 -3 -32 -2 -38 5 -23 5 11
10 39 10 63 1 31 5 42 16 42 13 0 15 -11 10 -67 -4 -47 -2 -62 4 -48 5 11 10
39 10 62 1 23 6 45 12 49 9 5 10 -8 7 -45 -3 -28 -1 -51 3 -51 4 0 9 17 11 38
3 32 7 37 30 40 25 3 26 2 22 -40 -3 -32 -2 -38 5 -23 5 11 10 41 10 68 1 37
5 47 17 47 15 0 16 -9 10 -67 -8 -81 1 -80 12 1 10 77 28 72 23 -7 -1 -34 -5
-65 -8 -70 -2 -4 -28 -4 -57 -1 -40 5 -56 3 -68 -9 -11 -12 -33 -16 -79 -14
-42 1 -64 -3 -67 -11 -10 -31 -22 -6 -22 48 0 45 4 62 15 66 8 4 15 10 15 15
0 4 -7 6 -15 3 -12 -5 -15 3 -15 39 0 25 5 49 11 52 17 11 25 -5 9 -16 -12 -9
-12 -10 3 -5 10 3 24 6 30 6 7 0 6 4 -3 10 -22 14 -6 23 57 31 60 8 78 4 53
-11 -12 -8 -12 -10 -2 -10 8 0 16 9 19 20 4 13 17 21 42 25 20 4 48 9 64 11
19 4 27 2 27 -9 0 -11 6 -13 23 -9 18 5 19 7 5 10 -39 8 -13 28 40 31 12 0 22
-3 22 -9z m-567 -37 c-6 -35 -17 -52 -35 -53 -12 0 2 74 16 82 21 14 25 8 19
-29z m153 -78 c-6 -31 -14 -39 -52 -55 -24 -11 -44 -22 -44 -25 0 -3 9 -1 19
5 11 5 28 10 38 10 11 -1 5 -7 -17 -18 -32 -15 -35 -21 -37 -62 -2 -32 0 -39
6 -25 5 11 7 27 6 35 -2 17 13 30 35 30 12 0 15 -9 14 -37 -2 -21 2 -10 8 25
6 34 15 61 20 60 5 -2 9 -7 9 -11 -1 -4 -1 -34 -1 -66 l0 -59 -45 0 c-26 0
-51 -6 -60 -15 -8 -9 -24 -13 -35 -10 -19 5 -21 10 -14 62 7 63 10 71 26 71 7
0 9 -20 4 -62 -4 -40 -3 -59 4 -52 8 8 14 103 9 144 -6 43 2 68 24 75 30 11
81 22 86 18 2 -1 0 -18 -3 -38z m-127 -12 c0 -16 -4 -36 -8 -47 -7 -17 -8 -17
-24 -2 -9 10 -17 14 -17 9 0 -5 5 -14 12 -21 15 -15 -4 -38 -22 -27 -15 9 -5
65 13 77 9 6 9 8 0 8 -7 0 -13 4 -13 9 0 8 10 12 53 20 4 0 7 -11 6 -26z m697
-163 l-1 -59 -49 -13 c-26 -7 -51 -18 -53 -25 -3 -7 -11 -13 -19 -13 -8 0 -11
6 -8 15 4 8 12 15 20 15 11 0 14 16 14 64 0 63 1 65 28 69 71 11 68 12 68 -53z
m-730 34 c-3 -9 -6 -29 -6 -45 0 -23 -5 -29 -20 -29 -19 0 -20 4 -14 38 7 35
18 52 38 52 4 0 5 -7 2 -16z m624 -32 c0 -21 -6 -44 -12 -51 -11 -11 -10 -12
2 -6 12 7 13 6 2 -6 -11 -12 -14 -12 -22 1 -16 25 -12 60 8 61 15 1 16 2 0 6
-20 5 -13 33 8 33 10 0 14 -12 14 -38z m-200 -11 c0 -50 -13 -81 -34 -82 -15
-1 -16 -3 -5 -6 12 -3 15 -11 11 -25 -3 -14 -1 -19 6 -14 7 4 12 14 12 22 0 8
5 14 10 14 6 0 10 -11 10 -24 0 -19 -7 -24 -32 -29 -18 -3 -40 -8 -49 -12 -12
-5 -16 1 -17 25 0 21 4 30 16 31 15 1 15 2 0 6 -11 3 -19 15 -19 31 -1 24 -2
24 -8 -6 -9 -49 -26 -39 -26 15 0 45 1 46 40 59 61 18 85 17 85 -5z m-278 -71
c-6 -38 -11 -45 -37 -51 -17 -4 -38 -10 -47 -14 -12 -5 -17 -1 -20 17 -6 42 3
80 18 74 8 -3 14 -1 14 4 0 7 63 18 77 14 2 0 -1 -20 -5 -44z m-122 1 c0 -35
-19 -71 -37 -71 -15 0 -16 -2 -3 -10 8 -5 11 -10 5 -10 -27 0 -35 17 -29 63 6
44 9 47 35 47 22 0 29 -5 29 -19z m5 -145 c0 -55 -2 -62 -18 -58 -15 4 -16 12
-11 56 11 101 29 102 29 2z m-35 15 c0 -36 -15 -70 -32 -74 -18 -5 -20 -2 -14
25 3 17 6 37 6 44 0 8 9 14 20 14 11 0 20 -4 20 -9z m315 -801 c3 -6 -1 -7 -9
-4 -18 7 -21 14 -7 14 6 0 13 -4 16 -10z m-48 -112 c-3 -8 -6 -5 -6 6 -1 11 2
17 5 13 3 -3 4 -12 1 -19z"/>
<path d="M488 1523 c7 -3 16 -2 19 1 4 3 -2 6 -13 5 -11 0 -14 -3 -6 -6z"/>
<path d="M886 1332 c-3 -5 8 -6 25 -4 16 2 29 6 29 8 0 8 -49 4 -54 -4z"/>
<path d="M292 1608 c1 -59 3 -68 5 -33 3 27 9 55 15 62 7 9 7 13 0 13 -6 0 -9
9 -7 20 2 11 0 20 -6 20 -5 0 -8 -36 -7 -82z"/>
<path d="M551 1670 c-1 -14 -4 -41 -7 -60 -3 -24 -1 -31 6 -24 6 6 9 33 7 60
-2 27 -5 38 -6 24z"/>
<path d="M640 1653 c0 -28 3 -34 10 -23 13 20 13 60 0 60 -5 0 -10 -17 -10
-37z"/>
<path d="M691 1675 c0 -11 -4 -31 -7 -45 -5 -19 -4 -22 5 -14 7 6 11 26 8 45
-2 19 -5 25 -6 14z"/>
<path d="M786 1682 c-2 -4 -1 -14 5 -22 7 -12 9 -10 9 8 0 23 -5 28 -14 14z"/>
<path d="M832 1665 c0 -16 2 -22 5 -12 2 9 2 23 0 30 -3 6 -5 -1 -5 -18z"/>
<path d="M1230 1680 c-21 -7 -21 -8 -5 -9 11 0 27 4 35 9 18 11 5 11 -30 0z"/>
<path d="M1490 1670 c0 -13 -9 -22 -27 -26 -61 -13 -79 -23 -33 -18 44 5 45 5
20 -11 -22 -14 -22 -15 -3 -10 20 6 21 3 18 -57 -3 -44 -1 -55 5 -38 4 14 8
48 9 75 l1 50 38 0 37 1 -3 -69 c-3 -48 0 -67 7 -63 14 9 15 186 2 186 -5 0
-11 -10 -13 -22 -5 -34 -38 -37 -38 -4 0 14 -4 26 -10 26 -5 0 -10 -9 -10 -20z"/>
<path d="M1631 1679 c-61 -12 -67 -23 -8 -14 l49 8 -7 -49 c-3 -27 -8 -59 -11
-71 -2 -12 0 -25 6 -28 6 -4 11 7 11 24 1 17 3 36 4 41 1 6 3 28 4 50 0 22 6
40 12 40 8 0 10 -26 7 -85 -2 -47 -1 -80 4 -73 4 7 8 43 8 79 0 66 0 67 31 73
17 3 35 3 40 0 5 -3 22 -8 36 -10 15 -3 29 -7 32 -9 7 -7 0 -149 -7 -156 -4
-3 -21 -2 -39 3 l-32 8 -4 83 -3 82 -2 -82 c-2 -71 -5 -83 -19 -84 -10 -1 -50
-2 -90 -3 -41 -2 -78 -8 -87 -15 -23 -19 -20 -58 4 -64 13 -3 18 -1 13 6 -4 6
2 8 15 5 14 -4 20 -2 15 5 -4 6 2 8 15 5 12 -4 20 -3 17 2 -2 4 14 8 38 8 23
0 64 1 91 1 35 1 53 -4 63 -17 12 -16 13 -16 7 1 -3 9 -1 17 5 17 12 0 33 -35
30 -53 -4 -20 13 -67 23 -67 6 0 7 -11 4 -24 -3 -14 -1 -28 4 -31 6 -4 8 -10
5 -15 -3 -5 -1 -11 4 -15 6 -3 8 -12 5 -19 -3 -8 0 -17 7 -22 9 -5 11 -2 6 8
-4 11 1 18 14 21 16 4 19 14 19 55 0 28 3 53 8 55 4 3 6 -29 4 -70 -3 -57 -7
-73 -17 -69 -16 6 -28 -35 -15 -48 7 -7 10 -6 10 2 0 7 7 12 14 12 11 0 16 15
19 53 3 48 3 47 5 -17 2 -55 -1 -67 -12 -63 -15 6 -29 -50 -14 -59 4 -3 8 2 8
10 0 9 7 16 15 16 11 0 15 13 17 53 1 35 2 42 5 20 2 -18 8 -33 12 -33 4 0 13
-29 20 -65 14 -67 18 -74 39 -53 17 17 15 28 -5 28 -13 0 -14 3 -5 12 16 16
15 28 -3 28 -8 0 -15 5 -15 10 0 6 5 10 10 10 6 0 10 5 10 10 0 6 -7 10 -15
10 -17 0 -20 16 -5 25 17 10 11 25 -10 25 -25 0 -26 15 -2 25 15 6 14 9 -8 27
-16 14 -21 22 -12 25 6 3 12 14 12 25 0 15 -5 19 -20 15 -13 -3 -20 0 -20 9 0
8 5 14 10 14 6 0 10 9 10 20 0 18 -10 25 -32 21 -15 -2 -8 27 7 33 10 4 15 21
16 53 l2 48 8 -40 c4 -22 16 -80 26 -130 13 -64 23 -90 33 -90 8 0 16 8 18 18
2 11 -3 17 -14 17 -14 0 -15 3 -6 12 17 17 15 38 -3 38 -8 0 -15 5 -15 10 0 6
5 10 10 10 6 0 10 9 10 20 0 11 -7 20 -15 20 -18 0 -19 4 -2 30 10 17 9 22 -3
30 -8 5 -18 6 -22 4 -15 -10 -8 19 8 31 15 10 15 13 -1 28 -9 10 -21 15 -26
12 -5 -4 -9 0 -9 8 0 8 7 17 15 21 8 3 15 17 15 32 0 23 -3 25 -25 20 -20 -5
-25 -3 -25 14 0 11 7 20 15 20 8 0 15 9 15 20 0 14 -7 20 -22 20 -22 0 -23 -3
-20 -69 3 -67 3 -68 -22 -73 -20 -4 -26 -1 -26 12 0 10 7 20 15 24 11 4 15 20
14 58 -1 29 -4 43 -6 31 -2 -13 -10 -23 -16 -23 -7 0 -22 -3 -34 -6 -20 -5
-23 -2 -23 20 0 14 -4 26 -10 26 -5 0 -10 -5 -10 -11 0 -7 -8 -9 -22 -4 -34
11 -157 13 -207 4z m269 -135 l0 -85 -47 8 c-74 12 -205 4 -256 -16 -36 -14
-37 -14 -37 3 0 14 11 18 94 32 30 5 37 4 31 -6 -6 -10 -4 -11 6 -4 13 8 33
14 54 16 6 1 34 -2 63 -6 l52 -7 0 38 c0 64 12 113 26 113 11 0 14 -20 14 -86z
m17 54 c-3 -7 -5 -2 -5 12 0 14 2 19 5 13 2 -7 2 -19 0 -25z m83 -67 c0 -65
-1 -69 -25 -73 -19 -4 -25 -1 -25 12 0 10 9 20 20 23 12 3 19 13 18 24 -2 31
2 83 7 83 3 0 5 -31 5 -69z m-70 -90 c0 -74 -1 -79 -20 -74 -24 6 -26 28 -4
37 12 5 15 18 12 61 -1 30 0 55 5 55 4 0 7 -36 7 -79z m30 -86 c0 -41 -4 -75
-8 -75 -5 0 -17 6 -27 14 -18 13 -18 14 1 20 16 5 19 13 16 61 -3 35 0 55 7
55 7 0 11 -27 11 -75z"/>
<path d="M1892 1670 c0 -14 2 -19 5 -12 2 6 2 18 0 25 -3 6 -5 1 -5 -13z"/>
<path d="M2049 1613 c2 -49 6 -69 10 -53 5 17 11 -5 19 -70 11 -82 28 -168 70
-360 8 -37 9 -27 5 55 -2 60 -10 112 -19 130 -15 29 -26 88 -28 150 0 17 -5
36 -10 44 -7 10 -6 12 4 6 8 -5 7 1 -3 16 -20 28 -22 43 -4 33 9 -6 9 -5 -1 8
-6 8 -13 33 -15 54 -3 39 -12 64 -25 64 -4 0 -5 -35 -3 -77z"/>
<path d="M2031 1644 c0 -11 3 -14 6 -6 3 7 2 16 -1 19 -3 4 -6 -2 -5 -13z"/>
<path d="M1056 1641 c-3 -4 6 -6 19 -3 14 2 25 6 25 8 0 8 -39 4 -44 -5z"/>
<path d="M1140 1593 c4 -26 6 -76 4 -112 l-3 -66 11 70 c6 39 16 73 22 77 7 5
4 8 -6 8 -13 0 -18 8 -18 29 0 17 -4 32 -8 35 -5 3 -6 -16 -2 -41z"/>
<path d="M961 1605 c0 -17 -8 -41 -17 -53 -12 -17 -12 -22 -2 -22 8 0 9 -3 3
-8 -16 -11 -16 -32 -1 -32 16 0 32 91 23 126 -3 12 -5 8 -6 -11z"/>
<path d="M1628 1623 c7 -3 16 -2 19 1 4 3 -2 6 -13 5 -11 0 -14 -3 -6 -6z"/>
<path d="M1115 1590 c-7 -22 -24 -26 -43 -10 -6 6 -10 7 -7 4 3 -4 -3 -13 -13
-20 -15 -11 -12 -12 19 -8 29 5 36 3 36 -10 0 -10 -6 -15 -14 -12 -7 3 -13 -1
-13 -9 0 -9 6 -12 17 -8 14 6 15 0 10 -43 -4 -28 -3 -43 2 -34 9 16 25 170 17
170 -3 0 -8 -9 -11 -20z"/>
<path d="M840 1590 c-9 -6 -10 -10 -3 -10 6 0 15 5 18 10 8 12 4 12 -15 0z"/>
<path d="M1223 1593 c9 -2 25 -2 35 0 9 3 1 5 -18 5 -19 0 -27 -2 -17 -5z"/>
<path d="M1418 1583 c6 -2 18 -2 25 0 6 3 1 5 -13 5 -14 0 -19 -2 -12 -5z"/>
<path d="M1218 1543 c7 -3 16 -2 19 1 4 3 -2 6 -13 5 -11 0 -14 -3 -6 -6z"/>
<path d="M944 1466 c-3 -8 -4 -27 -2 -43 3 -23 5 -20 9 15 5 43 2 53 -7 28z"/>
<path d="M820 1418 c0 -28 2 -49 4 -47 8 9 13 99 5 99 -5 0 -9 -23 -9 -52z"/>
<path d="M1428 1413 c7 -3 16 -2 19 1 4 3 -2 6 -13 5 -11 0 -14 -3 -6 -6z"/>
<path d="M1515 1406 c-29 -12 -29 -13 -7 -18 12 -3 20 -2 16 3 -3 5 2 9 10 9
8 0 18 5 21 10 8 13 -3 12 -40 -4z"/>
<path d="M1238 1383 c6 -2 18 -2 25 0 6 3 1 5 -13 5 -14 0 -19 -2 -12 -5z"/>
<path d="M1175 1369 c-17 -6 -17 -8 -3 -8 11 -1 15 -6 12 -16 -4 -9 0 -15 7
-15 12 0 12 -2 0 -9 -9 -6 -10 -11 -2 -15 6 -4 11 -3 11 3 0 5 8 12 18 14 15
4 15 5 0 6 -10 1 -18 11 -20 25 -2 19 -7 22 -23 15z"/>
<path d="M1048 1353 c6 -2 18 -2 25 0 6 3 1 5 -13 5 -14 0 -19 -2 -12 -5z"/>
<path d="M990 1286 c0 -9 5 -16 10 -16 6 0 10 4 10 9 0 6 -4 13 -10 16 -5 3
-10 -1 -10 -9z"/>
<path d="M1150 1290 c-8 -5 -10 -10 -5 -10 6 0 17 5 25 10 8 5 11 10 5 10 -5
0 -17 -5 -25 -10z"/>
<path d="M711 1254 c0 -11 3 -14 6 -6 3 7 2 16 -1 19 -3 4 -6 -2 -5 -13z"/>
<path d="M2080 1225 c0 -8 7 -15 15 -15 8 0 15 7 15 15 0 8 -7 15 -15 15 -8 0
-15 -7 -15 -15z"/>
<path d="M2090 1187 c1 -33 37 -151 48 -155 7 -2 12 1 12 7 0 6 -5 11 -11 11
-8 0 -8 5 1 15 10 12 9 15 -5 15 -14 0 -15 3 -5 15 10 12 9 16 -5 21 -13 5
-14 9 -3 15 10 7 11 11 0 17 -7 5 -10 16 -7 24 4 9 0 18 -9 21 -9 4 -16 1 -16
-6z"/>
<path d="M433 1153 c-14 -5 -18 -69 -5 -76 4 -2 27 4 52 14 32 12 40 19 29 24
-8 3 -28 1 -43 -5 -36 -13 -36 -13 -36 9 0 11 6 21 13 24 6 2 10 7 7 9 -3 3
-11 3 -17 1z"/>
<path d="M392 1113 c-2 -38 -5 -43 -24 -41 -13 1 -33 -2 -45 -6 -19 -6 -22 -3
-26 31 -3 34 -4 33 -5 -11 l-2 -48 33 7 c28 7 54 11 92 14 6 1 5 5 -2 9 -6 4
-13 25 -16 47 l-4 40 -1 -42z"/>
<path d="M1205 1139 c-84 -8 -123 -14 -165 -24 -14 -4 -45 -11 -70 -15 -25 -5
-85 -18 -135 -30 -49 -12 -94 -23 -100 -25 -40 -9 -118 -45 -112 -51 3 -3 17
2 31 11 14 10 32 15 40 12 8 -3 16 -2 18 4 4 12 293 75 436 94 140 19 248 20
255 3 4 -9 6 -10 6 -1 1 12 28 11 127 -8 34 -7 58 -6 75 1 24 10 24 10 -3 5
-16 -3 -28 -2 -28 3 0 4 -12 7 -27 6 -16 0 -41 3 -58 8 -43 12 -196 16 -290 7z"/>
<path d="M1695 1140 c-3 -6 1 -7 9 -4 18 7 21 14 7 14 -6 0 -13 -4 -16 -10z"/>
<path d="M1341 1084 c0 -11 3 -14 6 -6 3 7 2 16 -1 19 -3 4 -6 -2 -5 -13z"/>
<path d="M1633 1084 c16 -8 31 -13 35 -10 8 8 1 12 -33 20 l-30 6 28 -16z"/>
<path d="M1990 1081 c0 -11 -3 -27 -7 -37 -5 -14 -3 -16 12 -11 16 7 17 3 12
-28 -4 -21 -2 -35 5 -35 6 0 8 -9 5 -20 -3 -11 -1 -23 4 -26 5 -3 9 8 9 25 0
16 6 31 13 34 8 3 6 9 -7 19 -13 10 -15 17 -8 22 19 11 14 26 -8 26 -11 0 -20
5 -20 10 0 6 5 10 10 10 6 0 10 7 10 15 0 8 -7 15 -15 15 -8 0 -15 -9 -15 -19z"/>
<path d="M1100 1080 c-9 -6 -10 -10 -3 -10 6 0 15 5 18 10 8 12 4 12 -15 0z"/>
<path d="M1195 1080 l-30 -8 33 -1 c17 0 32 4 32 9 0 6 -1 9 -2 9 -2 -1 -16
-5 -33 -9z"/>
<path d="M1386 1075 c-3 -8 -1 -15 4 -15 6 0 10 7 10 15 0 8 -2 15 -4 15 -2 0
-6 -7 -10 -15z"/>
<path d="M1955 1068 c3 -16 8 -39 11 -53 4 -17 2 -25 -8 -25 -7 0 -24 -18 -38
-40 -24 -39 -40 -51 -40 -29 0 5 -5 7 -11 3 -6 -3 -7 -9 -3 -13 5 -3 11 -17
12 -31 5 -35 12 -39 12 -6 0 18 5 26 13 24 6 -3 12 -20 12 -39 0 -22 -4 -33
-12 -32 -7 2 -13 -5 -13 -15 0 -35 -28 -60 -65 -59 -23 1 -34 5 -31 13 3 8
-15 11 -64 10 -38 -1 -72 -5 -76 -9 -4 -4 -2 -7 4 -7 7 0 12 -5 12 -12 0 -6
-7 -4 -18 5 -24 22 -82 23 -82 2 0 -17 -17 -20 -22 -4 -4 13 -119 18 -168 7
-19 -4 -89 -10 -155 -13 -87 -4 -123 -10 -131 -20 -6 -8 -13 -13 -15 -11 -2 2
-36 1 -76 -3 l-72 -7 1 37 c0 40 7 41 53 13 27 -16 109 -28 100 -14 -3 5 -13
10 -20 10 -8 0 -55 15 -105 34 -49 19 -90 30 -90 25 0 -5 6 -9 14 -9 21 0 34
-89 15 -101 -12 -8 230 -3 286 6 11 2 62 4 113 4 85 1 94 3 99 21 7 25 53 28
53 4 0 -14 16 -15 153 -10 83 4 194 9 245 12 55 3 92 1 92 -4 0 -14 -24 -18
-140 -21 -58 -1 -109 -6 -114 -11 -5 -5 0 -7 10 -6 11 2 22 -2 26 -8 5 -8 11
-7 20 2 16 16 98 16 98 0 0 -10 2 -10 8 -1 5 7 27 14 50 15 29 1 43 6 47 18 4
13 30 19 123 28 115 12 329 37 407 47 22 3 119 14 215 25 188 22 243 30 237
36 -2 3 -98 -7 -213 -21 -115 -14 -328 -39 -474 -55 -146 -17 -273 -32 -282
-34 -14 -3 -18 3 -19 27 0 18 -3 53 -5 78 -6 62 8 123 28 127 14 3 17 -12 20
-102 1 -57 6 -107 10 -111 3 -4 15 -2 25 4 17 10 17 11 -4 17 -26 7 -28 13
-11 49 l12 26 17 -43 c15 -39 49 -66 49 -39 0 6 -4 11 -10 11 -5 0 -10 7 -10
15 0 24 19 17 26 -10 7 -27 12 -29 34 -15 9 6 11 10 3 10 -7 0 -10 7 -6 15 3
9 2 15 -3 14 -21 -4 -28 2 -14 12 12 9 11 10 -7 6 -13 -3 -23 -1 -23 4 0 5 7
9 15 9 8 0 15 5 15 11 0 6 -9 9 -20 6 -11 -3 -20 -1 -20 4 0 5 7 9 15 9 21 0
19 20 -2 21 -11 0 -13 3 -5 6 17 7 15 23 -3 23 -8 0 -15 5 -15 10 0 6 6 10 13
10 8 0 7 4 -3 10 -12 8 -16 1 -21 -38 -4 -32 -1 -51 8 -60 14 -15 17 -32 5
-32 -11 0 -40 72 -68 165 -27 89 -37 114 -29 73z m55 -178 c0 -5 -4 -10 -10
-10 -5 0 -10 5 -10 10 0 6 5 10 10 10 6 0 10 -4 10 -10z m-89 -103 c-13 -13
-26 -3 -16 12 3 6 11 8 17 5 6 -4 6 -10 -1 -17z m-156 -27 c14 -6 4 -8 -35 -8
-45 0 -50 2 -25 8 39 10 37 10 60 0z"/>
<path d="M1275 1070 c4 -6 11 -8 16 -5 14 9 11 15 -7 15 -8 0 -12 -5 -9 -10z"/>
<path d="M1686 1062 c5 -5 30 -21 56 -35 35 -20 49 -24 54 -15 4 7 4 10 0 6
-5 -4 -29 7 -56 23 -44 27 -76 39 -54 21z"/>
<path d="M1502 1030 c0 -14 2 -19 5 -12 2 6 2 18 0 25 -3 6 -5 1 -5 -13z"/>
<path d="M1280 1031 c0 -5 -8 -12 -17 -14 -14 -4 -12 -5 5 -6 13 -1 22 5 22
14 0 8 -2 15 -5 15 -3 0 -5 -4 -5 -9z"/>
<path d="M1452 1020 c0 -14 2 -19 5 -12 2 6 2 18 0 25 -3 6 -5 1 -5 -13z"/>
<path d="M1690 996 c0 -19 3 -37 8 -40 4 -2 6 13 4 35 -5 48 -12 51 -12 5z"/>
<path d="M2080 1017 c0 -8 9 -40 20 -73 11 -32 22 -69 25 -82 6 -35 12 -37 17
-7 3 14 1 25 -4 25 -6 0 -8 7 -4 15 3 8 1 15 -4 15 -5 0 -7 7 -4 15 4 9 0 15
-7 15 -11 0 -11 3 1 11 11 7 12 12 3 15 -7 3 -9 12 -6 20 3 9 -2 14 -13 15
-11 0 -14 3 -6 6 17 7 15 23 -3 23 -8 0 -15 -6 -15 -13z"/>
<path d="M1046 1005 c4 -8 8 -15 10 -15 2 0 4 7 4 15 0 8 -4 15 -10 15 -5 0
-7 -7 -4 -15z"/>
<path d="M1310 1016 c0 -2 7 -6 15 -10 8 -3 15 -1 15 4 0 6 -7 10 -15 10 -8 0
-15 -2 -15 -4z"/>
<path d="M2138 990 c5 -36 7 -35 16 3 4 19 3 27 -7 27 -9 0 -12 -9 -9 -30z"/>
<path d="M820 999 c0 -5 5 -7 10 -4 6 3 10 8 10 11 0 2 -4 4 -10 4 -5 0 -10
-5 -10 -11z"/>
<path d="M1495 990 c3 -5 8 -10 11 -10 2 0 4 5 4 10 0 6 -5 10 -11 10 -5 0 -7
-4 -4 -10z"/>
<path d="M970 969 c-188 -14 -188 -16 0 -12 102 3 199 4 215 3 17 -1 77 -3
135 -5 58 -1 120 -4 138 -7 17 -2 32 -1 32 3 0 19 -347 32 -520 18z"/>
<path d="M1600 969 c0 -5 5 -7 10 -4 6 3 10 8 10 11 0 2 -4 4 -10 4 -5 0 -10
-5 -10 -11z"/>
<path d="M586 939 c8 -14 74 -48 78 -41 2 4 -15 17 -39 28 -24 11 -42 17 -39
13z"/>
<path d="M1530 946 c0 -2 7 -6 15 -10 8 -3 15 -1 15 4 0 6 -7 10 -15 10 -8 0
-15 -2 -15 -4z"/>
<path d="M1318 923 c7 -3 16 -2 19 1 4 3 -2 6 -13 5 -11 0 -14 -3 -6 -6z"/>
<path d="M1438 913 c7 -3 16 -2 19 1 4 3 -2 6 -13 5 -11 0 -14 -3 -6 -6z"/>
<path d="M1518 903 c7 -3 16 -2 19 1 4 3 -2 6 -13 5 -11 0 -14 -3 -6 -6z"/>
<path d="M688 893 c6 -2 18 -2 25 0 6 3 1 5 -13 5 -14 0 -19 -2 -12 -5z"/>
<path d="M733 862 c9 -10 17 -24 17 -30 0 -7 5 -12 11 -12 5 0 8 4 4 9 -10 18
16 23 34 7 10 -9 23 -16 30 -16 9 0 11 -8 7 -22 -3 -13 -6 -29 -6 -35 0 -7 -4
-13 -10 -13 -5 0 -10 10 -10 22 0 38 -17 6 -25 -46 -6 -43 -5 -48 10 -42 9 3
28 6 42 6 24 0 25 2 20 53 -2 28 0 62 4 75 5 13 5 21 0 18 -5 -3 -40 6 -77 20
-61 23 -66 23 -51 6z m107 -142 c0 -13 -7 -20 -20 -20 -13 0 -20 7 -20 20 0
13 7 20 20 20 13 0 20 -7 20 -20z"/>
<path d="M800 870 c0 -5 7 -7 15 -4 8 4 17 -1 21 -10 3 -9 10 -13 16 -10 10 7
-20 33 -39 34 -7 0 -13 -4 -13 -10z"/>
<path d="M1068 873 c6 -2 18 -2 25 0 6 3 1 5 -13 5 -14 0 -19 -2 -12 -5z"/>
<path d="M1153 873 c15 -2 37 -2 50 0 12 2 0 4 -28 4 -27 0 -38 -2 -22 -4z"/>
<path d="M1238 873 c6 -2 18 -2 25 0 6 3 1 5 -13 5 -14 0 -19 -2 -12 -5z"/>
<path d="M918 863 c6 -2 18 -2 25 0 6 3 1 5 -13 5 -14 0 -19 -2 -12 -5z"/>
<path d="M1378 863 c7 -3 16 -2 19 1 4 3 -2 6 -13 5 -11 0 -14 -3 -6 -6z"/>
<path d="M1538 863 c7 -3 16 -2 19 1 4 3 -2 6 -13 5 -11 0 -14 -3 -6 -6z"/>
<path d="M1488 853 c7 -3 16 -2 19 1 4 3 -2 6 -13 5 -11 0 -14 -3 -6 -6z"/>
<path d="M1598 853 c7 -3 16 -2 19 1 4 3 -2 6 -13 5 -11 0 -14 -3 -6 -6z"/>
<path d="M1844 834 c3 -8 6 -18 6 -20 0 -3 5 -2 10 1 15 9 12 22 -6 29 -12 5
-15 2 -10 -10z"/>
<path d="M436 813 c-3 -10 -8 -35 -12 -55 -3 -21 -10 -38 -15 -38 -5 0 -6 -14
-2 -32 4 -21 3 -29 -5 -25 -6 5 -8 -1 -5 -15 4 -19 3 -20 -6 -8 -7 9 -11 10
-11 3 0 -6 5 -15 10 -18 6 -3 10 -13 10 -21 0 -8 -4 -13 -9 -10 -5 3 -12 -1
-15 -10 -4 -10 -2 -13 6 -8 8 5 9 0 5 -17 -4 -13 -7 -32 -7 -41 0 -10 -5 -18
-11 -18 -7 0 -9 12 -7 30 3 17 1 33 -4 36 -12 7 -10 52 2 56 7 2 5 11 -4 23
-13 18 -14 13 -11 -50 5 -86 0 -105 -28 -106 -17 -1 -18 -2 -4 -6 9 -2 17 -10
17 -18 0 -8 -7 -11 -20 -8 -11 3 -20 12 -20 19 0 8 -4 14 -10 14 -5 0 -6 -8
-3 -17 5 -12 2 -15 -10 -10 -9 3 -17 2 -17 -3 0 -6 6 -11 13 -11 6 -1 17 -2
22 -4 6 -1 17 -3 25 -4 12 -1 11 -5 -4 -16 -11 -8 -25 -15 -30 -15 -6 0 -4 5
4 10 9 6 10 10 3 10 -6 0 -15 -5 -19 -11 -4 -8 -9 -7 -14 2 -12 19 -51 23 -44
4 4 -8 1 -15 -5 -15 -6 0 -10 3 -9 8 2 4 -1 7 -7 7 -5 0 -9 -3 -7 -7 5 -18
-10 -6 -19 15 l-10 22 5 -22 c5 -25 -9 -32 -17 -9 -9 23 15 35 61 30 44 -5 45
-4 45 49 0 9 3 17 8 17 5 0 6 6 4 13 -2 6 6 20 19 29 24 17 25 17 45 -15 27
-42 26 -33 -3 27 -13 28 -26 44 -30 37 -4 -6 -2 -11 4 -11 6 0 -1 -11 -16 -25
-30 -28 -40 -31 -46 -13 -3 7 -7 5 -11 -6 -4 -9 -3 -15 2 -12 5 3 11 -1 14 -9
5 -11 1 -12 -19 -5 -37 15 -47 12 -41 -10 3 -11 1 -20 -4 -20 -5 0 -9 -5 -9
-11 0 -8 5 -8 15 1 12 10 15 10 15 -4 0 -10 -8 -16 -21 -16 -17 0 -20 5 -17
25 7 34 -5 39 -19 9 -7 -14 -7 -21 -1 -18 7 4 7 -2 2 -17 -4 -13 -7 -29 -7
-35 0 -6 -6 -11 -13 -11 -7 0 -11 4 -8 9 3 4 -6 8 -20 8 -14 0 -26 5 -26 11 0
6 10 10 23 9 35 -3 37 -1 27 24 -6 18 -4 28 9 42 9 11 20 28 24 39 5 14 1 12
-14 -7 -24 -32 -46 -38 -27 -8 7 10 9 22 5 26 -9 10 -17 1 -22 -25 -2 -13 -7
-31 -10 -42 -4 -11 -2 -19 5 -19 6 0 8 5 4 12 -4 7 -3 8 4 4 22 -13 13 -36
-14 -36 -22 0 -25 -3 -20 -22 3 -13 6 -28 6 -34 0 -6 17 -11 37 -11 59 -1 63
-2 63 -19 0 -10 -6 -14 -15 -11 -8 4 -17 2 -20 -4 -4 -5 -3 -9 2 -8 19 3 34
-2 29 -10 -4 -5 0 -12 6 -14 10 -4 10 -6 1 -6 -7 -1 -17 -28 -24 -61 -10 -51
-14 -58 -29 -50 -12 6 -17 5 -17 -5 0 -7 6 -11 12 -8 12 4 25 -26 25 -57 0
-13 -1 -13 -10 0 -6 10 -10 11 -10 3 0 -7 -5 -13 -10 -13 -6 0 -9 3 -9 8 1 4
1 15 0 25 -2 30 -16 18 -18 -16 -3 -32 -2 -33 32 -29 19 2 35 8 35 13 0 5 9 9
20 9 13 0 18 -5 14 -15 -4 -11 -2 -13 9 -9 10 3 17 -1 20 -13 3 -10 3 -2 1 17
-3 19 1 65 9 103 8 37 11 67 7 67 -5 0 -5 12 -1 27 9 34 66 52 68 21 2 -19
-21 -25 -32 -8 -3 6 -10 10 -16 10 -5 0 -9 -4 -9 -10 0 -5 7 -10 16 -10 17 0
16 -32 -5 -155 -11 -62 -6 -75 30 -75 18 0 33 25 30 50 -1 12 1 11 12 -2 10
-13 16 -15 25 -6 7 7 12 8 12 3 0 -5 13 9 29 31 21 27 26 42 20 51 -8 9 -3 11
21 8 17 -2 34 -6 39 -9 5 -3 3 11 -4 32 -8 21 -10 41 -5 47 5 6 13 30 18 53 8
33 7 42 -4 42 -13 0 -22 -32 -28 -105 -2 -21 -8 -41 -14 -43 -6 -2 -9 8 -8 22
2 14 -2 26 -8 26 -7 0 -7 3 -1 8 13 9 18 52 6 52 -5 0 -18 3 -28 7 -17 6 -17
6 -1 -10 9 -10 15 -23 12 -31 -3 -7 0 -24 5 -39 9 -22 7 -27 -9 -32 -16 -5
-18 -10 -10 -26 6 -11 7 -19 1 -19 -5 0 -12 -11 -15 -25 -4 -15 -13 -25 -25
-25 -28 0 -43 24 -34 57 4 15 6 34 5 41 -2 6 4 12 13 12 13 0 15 -6 10 -32 -4
-18 -12 -40 -18 -48 -6 -8 -7 -12 -3 -8 5 4 16 2 24 -5 13 -10 15 -9 9 6 -3 9
-3 17 2 17 5 0 11 9 14 20 3 11 1 20 -3 20 -5 0 -2 16 6 35 7 19 14 45 13 57
0 21 -1 21 -8 4 -8 -20 -8 -20 -13 0 -3 10 -9 28 -14 38 -6 16 -4 18 14 14 25
-7 27 0 9 23 -7 9 -18 14 -24 12 -7 -3 -13 1 -13 7 0 8 9 10 24 6 31 -8 38 4
43 67 2 27 8 60 13 73 5 13 7 30 4 37 -2 7 2 26 10 41 8 16 12 34 10 41 -3 7
-1 39 5 71 11 55 9 85 -3 47z m-219 -296 c11 4 14 2 11 -8 -7 -21 -32 -17 -35
6 -2 11 0 15 3 8 3 -7 12 -9 21 -6z m17 -41 c-3 -8 -12 -12 -21 -9 -12 5 -12
7 -1 14 20 13 28 11 22 -5z m138 7 c-6 -2 -10 -8 -7 -13 3 -4 -2 -10 -10 -14
-8 -3 -15 -2 -15 2 0 12 23 32 35 31 5 0 4 -3 -3 -6z m-39 -84 c0 -8 -4 -29
-8 -46 -6 -26 -4 -33 8 -33 14 0 31 -39 22 -49 -3 -2 -5 1 -5 7 0 6 -7 9 -15
6 -10 -4 -15 0 -15 12 0 19 -14 10 -15 -9 -4 -54 -19 -157 -26 -168 -19 -31
-20 6 -3 93 10 51 19 95 20 98 0 3 4 29 9 58 5 32 12 51 19 49 6 -2 10 -10 9
-18z m-36 -16 c-7 -6 -31 -10 -69 -12 -11 -1 -18 -9 -18 -21 0 -11 -7 -20 -15
-20 -17 0 -18 4 -9 38 6 19 13 22 62 22 30 0 52 -3 49 -7z m-102 -108 c1 -27
-2 -35 -15 -35 -13 0 -16 7 -13 28 11 64 26 68 28 7z m-5 -59 c0 -28 -14 -56
-26 -56 -14 0 -18 27 -9 53 7 16 35 19 35 3z"/>
<path d="M1826 805 c4 -8 11 -15 16 -15 6 0 5 6 -2 15 -7 8 -14 15 -16 15 -2
0 -1 -7 2 -15z"/>
<path d="M2141 804 c0 -11 3 -14 6 -6 3 7 2 16 -1 19 -3 4 -6 -2 -5 -13z"/>
<path d="M2675 784 c-115 -13 -302 -33 -415 -44 -315 -33 -315 -33 -312 -53 2
-10 -4 -17 -13 -17 -9 0 -13 5 -10 10 3 6 1 10 -4 10 -6 0 -11 -4 -11 -10 0
-6 -28 -10 -64 -10 -36 0 -68 -5 -71 -10 -4 -6 10 -10 34 -10 23 0 41 -3 41
-7 0 -5 -20 -8 -45 -8 -41 0 -45 2 -45 25 0 14 -4 20 -8 14 -4 -6 -38 -11 -75
-11 -38 -1 -71 -4 -75 -7 -3 -3 9 -6 26 -6 48 0 42 -27 -8 -32 -29 -2 -40 0
-44 12 -3 11 -4 10 -5 -3 -1 -15 -9 -18 -38 -17 -60 3 -87 1 -80 -7 4 -4 33
-5 65 -4 31 1 54 -1 49 -5 -4 -4 -33 -9 -65 -11 -31 -2 -63 -5 -69 -8 -7 -2
-13 1 -13 8 0 9 -3 8 -9 -1 -10 -17 -73 -12 -79 6 -3 8 13 12 55 13 32 1 50 3
41 6 -13 3 -17 14 -16 39 1 19 -2 37 -6 41 -3 4 -32 5 -63 4 -42 -2 -61 -8
-70 -21 -8 -12 -21 -16 -35 -13 -19 4 -20 3 -8 -6 8 -6 32 -11 53 -11 26 0 37
-4 37 -15 0 -8 -4 -15 -9 -15 -5 0 -16 -3 -24 -6 -9 -3 -17 0 -20 8 -2 9 -3 8
-3 -2 1 -10 11 -14 29 -12 17 2 27 -2 27 -10 0 -8 -12 -13 -32 -12 -28 1 -34
5 -38 30 -4 23 -7 25 -12 12 -9 -22 -68 -25 -68 -5 0 8 -7 14 -15 14 -10 0
-12 -4 -4 -13 7 -8 6 -14 -3 -17 -10 -4 -10 -6 0 -6 26 -2 11 -18 -18 -19 -30
-1 -41 12 -17 21 7 3 5 6 -5 6 -26 1 -22 19 5 24 18 4 17 5 -7 6 -25 1 -28 -2
-22 -21 3 -13 6 -29 6 -35 0 -10 32 -13 123 -15 113 -1 117 -2 47 -8 -41 -4
-63 -7 -48 -8 55 -4 37 -21 -24 -25 l-63 -3 63 -2 c48 -2 62 -5 62 -17 0 -19
-66 -21 -73 -2 -3 9 -7 9 -20 -2 -22 -17 -47 -7 -47 19 0 16 6 20 35 20 19 0
35 5 35 11 0 6 -17 9 -42 7 -44 -4 -44 -3 -39 -63 1 -11 19 -15 78 -17 47 -2
78 -7 80 -15 3 -7 -3 -10 -15 -6 -11 2 -23 0 -26 -6 -4 -6 0 -11 11 -11 17 -1
17 -1 0 -14 -19 -14 -23 -36 -7 -36 6 0 10 5 10 10 0 7 7 7 21 -1 12 -6 37 -9
55 -6 19 3 34 2 34 -4 0 -5 -29 -9 -65 -9 l-65 0 5 -45 c2 -25 0 -45 -6 -45
-5 0 -9 -7 -9 -17 0 -15 2 -15 19 1 19 18 26 76 9 76 -4 0 -8 5 -8 10 0 6 9
10 20 10 11 0 20 -5 20 -10 0 -7 59 -10 166 -9 91 0 168 -2 172 -5 3 -3 -36
-6 -86 -6 -73 0 -92 -3 -92 -14 0 -8 -10 -17 -22 -19 -13 -2 3 -5 34 -6 32 0
60 4 64 10 4 8 -3 9 -25 4 -20 -4 -31 -3 -31 4 0 15 67 14 73 -1 4 -10 6 -10
6 -1 1 9 8 10 26 3 14 -5 32 -7 40 -4 10 4 15 0 15 -10 0 -14 -17 -16 -130
-16 -83 0 -130 -4 -130 -10 0 -7 -6 -7 -19 0 -28 15 -58 12 -65 -5 -5 -14 11
-16 126 -14 89 1 133 -2 136 -10 2 -7 -12 -11 -37 -11 -23 0 -41 -5 -41 -11 0
-6 16 -9 38 -8 21 2 44 -1 52 -6 13 -8 13 -6 1 8 -15 18 -13 19 39 21 28 1 36
5 38 24 3 18 10 22 42 22 32 0 39 -4 43 -22 l4 -23 2 22 c1 19 6 22 44 20 36
-2 42 -5 43 -24 2 -22 -1 -23 -92 -23 -52 0 -94 -4 -94 -9 0 -5 -12 -12 -27
-14 -20 -3 -15 -4 15 -6 27 0 41 3 37 9 -4 6 2 7 17 2 13 -4 50 -7 84 -7 59 0
61 -1 62 -26 0 -20 -4 -25 -24 -25 -25 0 -33 21 -11 29 6 3 2 4 -10 4 -15 -1
-20 -6 -17 -20 3 -15 1 -17 -11 -7 -8 7 -15 19 -15 26 0 8 -4 14 -10 14 -5 0
-7 -7 -3 -16 5 -14 2 -16 -20 -10 -17 4 -27 2 -27 -4 0 -7 -8 -6 -22 2 -29 15
-278 19 -278 3 0 -5 -5 -3 -10 6 -10 18 -66 17 -84 -1 -13 -13 -10 -14 123
-18 43 -2 52 -5 47 -17 -7 -19 3 -19 24 0 11 10 27 13 54 8 43 -7 36 -20 -14
-26 -34 -4 -34 -4 5 -5 22 0 42 -1 45 -2 5 -1 93 -7 149 -9 31 -1 33 -3 18
-13 -15 -11 -13 -13 18 -13 l35 0 -23 17 c-22 17 -32 19 -132 23 -27 1 -51 5
-52 9 -8 19 2 21 55 16 31 -4 76 -6 99 -6 38 1 42 -1 37 -18 -4 -12 -2 -16 5
-12 6 4 11 14 11 21 0 8 6 12 13 10 28 -9 77 -13 82 -5 3 4 -2 13 -11 20 -10
9 -12 15 -4 20 8 5 7 9 -4 13 -19 8 -22 -13 -4 -31 9 -9 8 -12 -5 -12 -13 0
-17 9 -17 41 l0 40 43 -5 c23 -3 43 -5 45 -5 1 -1 2 -17 2 -37 0 -28 -3 -35
-15 -30 -8 3 -15 2 -15 -3 0 -5 9 -11 20 -14 18 -5 20 0 20 39 l0 44 45 0 45
0 0 -40 c0 -40 -15 -55 -23 -22 -4 13 -5 11 -6 -5 0 -13 2 -23 7 -23 4 0 81
-2 172 -4 91 -2 146 -2 124 0 -33 4 -43 10 -48 27 -14 51 -9 57 44 57 l50 0 0
-39 c0 -42 19 -68 21 -29 2 46 4 51 27 59 27 10 28 0 2 -43 -25 -42 -25 -50 1
-46 15 2 32 29 65 103 69 153 81 175 89 167 5 -4 5 -1 1 5 -4 7 -2 21 3 30 9
16 10 14 11 -9 0 -24 4 -27 37 -30 20 -2 38 -9 41 -15 3 -10 -12 -13 -54 -13
-31 0 -54 -3 -51 -7 7 -7 108 -5 115 2 3 2 1 12 -3 22 -4 10 -8 32 -7 48 0 17
-2 22 -4 13 -3 -11 -15 -18 -30 -18 -13 0 -24 -6 -25 -12 0 -7 -5 1 -10 17 -5
18 -5 31 1 33 5 2 6 10 3 18 -7 19 8 18 33 -2 17 -14 17 -15 1 -10 -11 4 -16
2 -12 -5 9 -14 28 -6 31 14 1 11 -5 17 -16 17 -10 0 -21 4 -24 8 -6 11 90 223
107 234 7 5 -14 7 -50 6 -34 -1 -59 -6 -57 -10 3 -5 16 -5 29 -2 34 8 44 -2
36 -34 -6 -19 -13 -26 -27 -24 -16 2 -16 1 -4 -7 11 -8 0 -11 -42 -11 -36 0
-58 5 -61 13 -4 7 -6 6 -6 -5 -1 -9 -7 -19 -13 -22 -7 -3 -1 -3 15 0 22 5 27
3 27 -14 0 -11 3 -34 6 -51 l7 -31 -57 0 c-49 0 -56 2 -56 20 0 17 7 20 43 21
38 0 40 1 17 10 -13 6 -35 7 -47 4 -18 -4 -23 -1 -23 14 0 11 8 21 18 23 14 3
13 5 -5 10 -19 5 -23 2 -23 -18 0 -22 -2 -23 -21 -13 -15 8 -19 8 -15 0 5 -7
-2 -11 -16 -10 -13 0 -52 -2 -88 -6 -62 -7 -66 -6 -67 14 -2 18 4 21 42 21 24
0 47 -4 50 -10 3 -5 10 -10 15 -10 9 0 7 26 -3 36 -4 4 -7 13 -7 21 0 18 106
18 113 1 3 -7 6 -4 6 8 1 19 -4 20 -54 18 -43 -2 -57 1 -65 14 -7 13 -9 7 -10
-25 l0 -43 -49 0 c-39 0 -51 4 -54 18 -3 9 -2 -13 1 -50 l5 -68 -102 0 c-57 0
-101 4 -101 9 0 6 21 10 48 9 26 0 54 2 62 5 8 4 31 8 50 10 19 3 -11 2 -67
-1 -84 -4 -103 -2 -103 9 0 11 19 14 92 13 51 -1 78 0 61 3 -18 2 -33 10 -33
16 0 8 -3 7 -9 -2 -6 -9 -9 0 -9 26 l-1 40 97 2 c98 2 144 11 59 11 -26 0 -47
5 -47 10 0 10 32 14 75 11 17 -2 18 0 5 9 -12 9 -7 10 20 5 39 -8 261 -7 269
0 2 3 -44 5 -104 5 -60 0 -106 2 -104 5 6 5 150 16 240 18 50 1 65 5 62 14 -4
9 5 13 27 13 22 0 29 -4 24 -12 -6 -10 -4 -10 8 0 22 18 72 27 62 11 -5 -8 -3
-9 7 -3 8 4 27 9 44 10 16 1 37 5 46 9 31 12 29 -13 -2 -39 -17 -14 -28 -26
-25 -26 3 0 -3 -9 -14 -20 -11 -11 -24 -20 -29 -20 -5 0 -12 -8 -15 -18 -7
-22 -100 -115 -118 -118 -19 -3 -85 -33 -73 -33 6 0 28 4 51 9 41 9 56 23 261
238 59 62 82 59 -212 26z m-626 -133 c-3 -54 -18 -65 -69 -50 -17 5 -19 7 -7
8 10 1 15 6 12 11 -4 6 -11 8 -16 5 -5 -4 -9 10 -9 29 0 33 2 35 38 39 20 2
41 4 45 5 4 1 7 -20 6 -47z m111 39 c0 -5 -22 -10 -50 -10 -27 0 -50 5 -50 10
0 6 23 10 50 10 28 0 50 -4 50 -10z m-760 -46 c0 -32 -2 -34 -35 -34 -24 0
-35 5 -35 15 0 8 8 15 17 15 9 0 13 3 10 7 -4 3 -26 6 -49 5 -37 -1 -41 0 -26
11 9 7 39 13 67 14 l51 1 0 -34z m550 -4 c0 -25 -30 -27 -31 -2 -1 16 -2 16
-6 0 -7 -26 -53 -24 -53 2 0 17 7 20 45 20 38 0 45 -3 45 -20z m-250 6 c0 -2
-7 -6 -15 -10 -8 -3 -15 -1 -15 4 0 6 7 10 15 10 8 0 15 -2 15 -4z m50 -5 c0
-5 -8 -12 -17 -14 -10 -3 11 -6 47 -7 123 -2 170 -10 170 -29 0 -14 -9 -18
-45 -18 -37 0 -45 4 -45 19 0 16 -9 18 -86 18 -47 0 -94 -5 -104 -10 -26 -14
-79 -19 -86 -9 -6 10 41 23 55 15 5 -4 12 -2 16 4 3 5 17 10 30 10 12 0 25 7
29 15 6 16 36 21 36 6z m838 -31 c-7 -11 -16 -20 -21 -20 -4 0 -6 -3 -4 -7 8
-13 -12 -53 -25 -52 -10 0 -10 2 -1 6 10 3 9 8 -2 20 -8 8 -15 28 -15 44 0 27
2 29 40 29 38 0 39 -1 28 -20z m-1350 -26 c-11 -11 -68 -15 -68 -5 0 5 15 11
33 13 34 3 44 1 35 -8z m612 -5 c0 -5 -19 -9 -42 -9 -35 1 -39 3 -25 11 9 6
27 7 38 4 16 -5 19 -4 14 5 -5 9 -4 11 3 6 7 -4 12 -11 12 -17z m-135 -9 c-27
-5 -75 -9 -105 -9 -30 -1 -50 -5 -44 -9 16 -10 29 -122 14 -122 -5 0 -10 11
-10 25 0 14 -4 25 -10 25 -10 0 -13 -10 -12 -45 0 -19 -14 -35 -30 -35 -5 0
-8 9 -8 21 0 11 4 18 9 14 5 -3 12 -1 15 4 4 5 2 12 -3 15 -5 4 -13 2 -16 -4
-5 -8 -11 -7 -21 1 -9 7 -14 8 -14 1 0 -6 5 -14 10 -17 15 -9 12 -35 -4 -35
-7 0 -17 15 -21 33 -5 22 -9 27 -12 14 -4 -15 -13 -17 -56 -15 -56 3 -71 21
-23 26 16 2 32 -2 37 -10 7 -10 9 -9 9 5 0 13 9 17 38 19 l37 1 -37 4 c-26 3
-38 9 -38 20 0 10 6 14 20 10 11 -3 23 -1 26 4 3 5 -6 9 -20 9 -19 0 -26 5
-26 19 0 17 10 20 73 25 90 8 169 12 227 13 l45 0 -50 -7z m635 0 l-55 -6 49
-5 c72 -6 73 -29 2 -29 -51 0 -56 2 -57 23 l-2 22 -4 -22 c-4 -20 -11 -23 -54
-23 -42 0 -49 3 -49 19 0 21 34 27 165 28 l60 0 -55 -7z m-940 -30 c0 -16 -7
-20 -35 -20 -22 0 -35 5 -35 13 0 20 10 27 42 27 21 0 28 -5 28 -20z m350 0
c0 -17 -7 -20 -40 -20 -33 0 -40 3 -40 20 0 17 7 20 40 20 33 0 40 -3 40 -20z
m98 4 c-2 -11 -17 -17 -45 -19 -36 -3 -43 0 -43 15 0 14 9 18 46 18 36 1 45
-2 42 -14z m99 2 c0 -10 -15 -15 -44 -18 -36 -3 -43 0 -43 14 0 14 9 18 43 18
31 0 44 -4 44 -14z m-287 -11 c0 -11 -9 -15 -37 -13 -52 5 -56 28 -4 28 30 0
41 -4 41 -15z m-345 -5 c4 -6 -8 -10 -29 -10 -20 0 -36 5 -36 10 0 6 13 10 29
10 17 0 33 -4 36 -10z m345 -37 c0 -20 -74 -14 -78 7 -2 12 6 15 38 12 27 -3
40 -9 40 -19z m300 -13 c4 0 6 8 3 18 -4 16 2 19 41 20 39 0 46 -3 46 -19 0
-10 5 -19 11 -19 6 0 9 7 5 15 -3 8 -2 15 2 16 4 0 26 2 48 5 35 5 42 3 46
-14 5 -17 -2 -20 -70 -26 -41 -3 -110 -6 -154 -6 -71 0 -78 2 -78 19 0 28 83
35 88 9 2 -10 7 -18 12 -18z m313 20 c5 -18 0 -20 -44 -20 -27 0 -49 2 -49 4
0 2 -3 11 -6 20 -5 13 2 16 44 16 41 0 51 -3 55 -20z m117 0 c0 -17 -7 -20
-50 -20 -27 0 -50 2 -50 4 0 2 -3 11 -6 20 -5 13 3 16 50 16 49 0 56 -2 56
-20z m120 0 c0 -18 -7 -20 -55 -20 -48 0 -55 2 -55 20 0 18 7 20 55 20 48 0
55 -2 55 -20z m-1189 -12 l2 -23 4 23 c4 18 11 22 39 22 27 0 34 -4 34 -20 0
-15 -7 -20 -27 -20 -39 0 -57 -14 -50 -39 6 -23 4 -25 -35 -35 -21 -5 -28 -3
-28 9 0 8 -6 15 -12 16 -10 0 -10 2 -1 6 9 3 11 17 7 44 l-7 39 37 0 c30 0 36
-4 37 -22z m429 5 c0 -9 -14 -13 -40 -13 -37 0 -49 8 -34 22 11 12 74 4 74 -9z
m100 2 c0 -11 -11 -15 -39 -15 -25 0 -41 5 -45 15 -4 12 4 15 39 15 33 0 45
-4 45 -15z m-90 -35 c0 -6 -32 -10 -71 -10 -38 0 -68 -4 -65 -8 6 -10 146 -13
146 -4 0 4 20 7 45 8 51 1 63 -15 13 -17 -176 -7 -252 -15 -256 -27 -3 -11 15
-13 94 -9 58 3 100 10 102 16 2 6 16 11 30 10 24 0 25 -1 7 -9 -19 -8 -19 -9
2 -9 12 -1 25 4 28 9 10 16 25 11 25 -8 0 -17 -13 -20 -137 -25 -75 -4 -176
-7 -226 -7 -77 0 -88 2 -83 16 3 9 6 20 6 25 0 5 4 9 10 9 5 0 7 -7 3 -16 -4
-10 -1 -15 8 -13 8 2 29 -1 48 -5 29 -7 38 -5 50 11 9 10 24 22 34 26 9 3 17
15 17 26 0 18 7 20 85 20 47 0 85 -4 85 -9z m73 3 c-13 -2 -33 -2 -45 0 -13 2
-3 4 22 4 25 0 35 -2 23 -4z m447 -17 c0 -21 -4 -23 -50 -22 -45 1 -50 3 -50
24 0 20 5 22 50 22 46 0 50 -2 50 -24z m113 4 c5 -18 0 -20 -49 -20 -47 0 -54
2 -54 20 0 17 7 20 49 20 40 0 50 -3 54 -20z m115 8 c-3 -8 -23 -13 -53 -13
-30 0 -50 5 -52 13 -4 9 11 12 52 12 41 0 56 -3 53 -12z m-338 -13 c0 -11 -12
-15 -50 -15 -38 0 -50 4 -50 15 0 11 12 15 50 15 38 0 50 -4 50 -15z m-215 -5
c4 -6 -12 -9 -42 -9 l-48 2 40 7 c22 4 41 8 42 9 1 0 5 -3 8 -9z m105 0 c0 -5
-20 -10 -45 -10 -25 0 -45 5 -45 10 0 6 20 10 45 10 25 0 45 -4 45 -10z m412
-50 c-18 -17 -25 -19 -42 -8 -30 19 -24 36 13 40 44 5 55 -8 29 -32z m-1064
13 c2 -9 -8 -13 -30 -14 l-33 -1 29 -7 c43 -9 45 -31 3 -31 -29 0 -35 4 -39
25 -5 23 -2 25 31 26 l36 2 -35 7 -35 8 34 -1 c19 -1 36 -8 39 -14z m488 6 c4
-8 9 -8 17 0 19 19 47 13 47 -9 0 -17 -7 -20 -45 -20 -38 0 -45 3 -45 20 0 22
15 27 26 9z m135 1 c19 0 29 -5 29 -15 0 -11 -12 -15 -45 -15 -39 0 -45 3 -45
21 0 15 4 19 16 15 9 -3 29 -6 45 -6z m139 -18 c0 -14 -9 -16 -50 -14 -38 3
-50 8 -50 20 0 14 9 16 50 14 38 -3 50 -8 50 -20z m230 1 c0 -21 -4 -23 -49
-23 -35 0 -51 4 -55 16 -10 27 -7 29 49 30 51 0 55 -1 55 -23z m-120 -2 c0
-16 -7 -18 -47 -16 -34 2 -49 8 -51 19 -3 13 6 16 47 16 43 0 51 -3 51 -19z
m154 -19 c3 -5 2 -18 -1 -30 -5 -20 -12 -22 -69 -22 -57 0 -64 2 -64 20 0 17
7 20 49 20 39 0 51 -4 54 -17 3 -11 5 -7 6 10 1 26 14 36 25 19z m-664 -20 c0
-16 -9 -17 -82 -14 -86 3 -122 12 -50 12 23 0 42 5 42 10 0 6 20 10 45 10 36
0 45 -3 45 -18z m90 1 c0 -14 -9 -18 -40 -20 -33 -1 -40 2 -40 18 0 16 7 19
40 19 31 0 40 -4 40 -17z m100 2 c0 -8 4 -15 10 -15 5 0 7 7 4 15 -5 11 1 15
22 14 41 -1 69 -12 72 -26 1 -10 -22 -13 -93 -13 -52 0 -95 2 -95 4 0 2 -3 11
-6 20 -5 13 2 16 40 16 34 0 46 -4 46 -15z m186 5 c24 0 34 -5 34 -15 0 -11
-12 -15 -50 -15 -44 0 -50 2 -50 21 0 15 4 19 16 15 9 -3 31 -6 50 -6z m144
-20 c0 -17 -6 -19 -50 -19 -42 1 -50 5 -50 20 0 16 8 19 50 19 43 0 50 -3 50
-20z m-610 -30 c0 -17 -7 -20 -40 -20 -32 0 -40 4 -40 18 0 15 8 19 40 20 34
2 40 -1 40 -18z m90 -5 c0 -11 -11 -15 -40 -15 -29 0 -40 4 -40 15 0 11 11 15
40 15 29 0 40 -4 40 -15z m100 -3 c0 -14 -7 -17 -45 -14 -30 3 -45 9 -45 18 0
10 13 14 45 14 36 0 45 -3 45 -18z m100 -2 c0 -17 -7 -20 -45 -20 -38 0 -45 3
-45 20 0 17 7 20 45 20 38 0 45 -3 45 -20z m98 -3 c3 -14 -4 -17 -42 -17 -40
0 -46 3 -46 21 0 18 5 20 42 17 31 -3 44 -9 46 -21z m78 13 c26 0 34 -4 34
-17 0 -15 -8 -17 -50 -15 -42 3 -50 7 -50 24 0 14 5 18 16 14 9 -3 31 -6 50
-6z m144 -20 c0 -17 -7 -20 -50 -20 -43 0 -50 3 -50 20 0 17 7 20 50 20 43 0
50 -3 50 -20z m123 0 c5 -18 0 -20 -54 -20 -52 0 -59 2 -59 20 0 18 7 20 54
20 45 0 54 -3 59 -20z m-543 -36 c0 -10 -12 -14 -40 -14 -32 0 -40 4 -40 18 0
14 7 17 40 14 26 -3 40 -9 40 -18z m-462 9 c-10 -2 -28 -2 -40 0 -13 2 -5 4
17 4 22 1 32 -1 23 -4z m182 -5 c0 -5 -18 -8 -41 -8 -22 0 -38 4 -34 9 6 11
75 10 75 -1z m380 -8 c0 -17 -5 -19 -32 -14 -49 8 -58 12 -58 24 0 5 20 10 45
10 38 0 45 -3 45 -20z m108 -2 c3 -15 -4 -18 -42 -18 -25 0 -46 2 -46 4 0 2
-3 12 -6 21 -6 14 0 16 42 13 37 -2 50 -7 52 -20z m100 6 c30 -9 7 -24 -38
-24 -43 0 -50 3 -50 19 0 17 5 19 38 15 20 -3 43 -7 50 -10z m115 -14 c5 -18
0 -20 -44 -20 -42 0 -49 3 -49 20 0 17 7 20 44 20 35 0 45 -4 49 -20z m117 0
c0 -17 -7 -20 -49 -20 -40 0 -50 3 -54 20 -5 18 0 20 49 20 47 0 54 -2 54 -20z
m-330 -44 c0 -13 3 -32 6 -41 6 -14 0 -16 -42 -13 -49 3 -49 3 -52 41 l-3 37
45 0 c42 0 46 -2 46 -24z m83 14 c25 0 27 -3 27 -40 l0 -40 -45 0 c-32 0 -45
4 -45 14 0 7 -3 28 -7 46 -6 31 -5 33 18 27 13 -4 36 -7 52 -7z"/>
<path d="M1995 670 c-30 -8 -30 -8 8 -9 20 0 37 4 37 9 0 11 -2 11 -45 0z"/>
<path d="M2006 618 c3 -5 10 -6 15 -3 13 9 11 12 -6 12 -8 0 -12 -4 -9 -9z"/>
<path d="M1470 542 c0 -4 8 -16 17 -27 14 -18 15 -18 9 -2 -4 13 -2 17 6 14 7
-2 12 -11 10 -20 -2 -12 5 -16 28 -14 32 2 42 17 11 17 -10 0 -21 8 -23 18 -5
17 -58 30 -58 14z"/>
<path d="M1290 476 c0 -2 7 -7 16 -10 8 -3 12 -2 9 4 -6 10 -25 14 -25 6z"/>
<path d="M1285 430 c-3 -5 3 -10 14 -10 12 0 21 5 21 10 0 6 -6 10 -14 10 -8
0 -18 -4 -21 -10z"/>
<path d="M197 720 c-3 -19 -8 -48 -12 -65 -4 -17 -3 -25 2 -19 4 6 16 10 26 8
9 -1 17 2 17 8 0 6 -7 8 -15 4 -17 -6 -19 3 -6 36 4 13 5 32 1 43 -6 17 -8 14
-13 -15z"/>
<path d="M2790 730 c-6 -11 -8 -20 -6 -20 3 0 10 9 16 20 6 11 8 20 6 20 -3 0
-10 -9 -16 -20z"/>
<path d="M56 723 c-6 -14 -5 -15 5 -6 7 7 10 15 7 18 -3 3 -9 -2 -12 -12z"/>
<path d="M230 720 c0 -5 5 -10 11 -10 5 0 7 5 4 10 -3 6 -8 10 -11 10 -2 0 -4
-4 -4 -10z"/>
<path d="M276 721 c-3 -5 1 -14 8 -20 12 -10 13 -8 9 8 -6 23 -9 25 -17 12z"/>
<path d="M316 695 c1 -20 -2 -33 -7 -30 -5 4 -6 -1 -3 -10 4 -9 9 -14 12 -11
8 9 11 76 3 81 -5 2 -7 -11 -5 -30z"/>
<path d="M1420 720 c-9 -6 -10 -10 -3 -10 6 0 15 5 18 10 8 12 4 12 -15 0z"/>
<path d="M578 690 c2 -16 6 -30 8 -30 2 0 4 14 4 30 0 17 -4 30 -8 30 -5 0 -7
-13 -4 -30z"/>
<path d="M18 679 c5 -35 8 -36 14 -5 3 14 0 27 -7 29 -7 3 -10 -5 -7 -24z"/>
<path d="M62 698 c-7 -7 -12 -22 -12 -34 0 -14 -8 -24 -21 -27 -14 -4 -20 -11
-16 -21 3 -8 1 -31 -4 -51 -7 -26 -7 -41 0 -48 7 -7 8 -3 4 13 -5 19 -3 22 10
17 12 -4 17 -1 17 10 0 13 3 13 15 3 9 -7 15 -8 15 -2 0 5 -6 12 -14 15 -11 4
-11 16 -3 59 10 50 20 67 41 68 5 0 4 -6 -1 -12 -6 -7 -13 -21 -16 -30 -5 -15
-3 -16 12 -6 11 7 17 18 13 27 -4 11 -1 13 14 8 19 -7 19 -7 0 8 -24 18 -38
19 -54 3z m-27 -78 c3 -5 1 -10 -4 -10 -6 0 -11 5 -11 10 0 6 2 10 4 10 3 0 8
-4 11 -10z m-2 -40 c-3 -12 -8 -19 -11 -16 -5 6 5 36 12 36 2 0 2 -9 -1 -20z"/>
<path d="M1637 704 c-3 -4 -40 -6 -82 -5 -73 2 -81 -2 -76 -32 1 -5 -2 -6 -6
-4 -5 3 -17 -2 -28 -10 -20 -15 -19 -15 3 -8 14 4 29 1 39 -7 12 -9 15 -9 9 0
-5 9 5 12 38 12 33 0 46 4 46 14 0 8 11 17 24 20 13 3 31 9 39 12 9 3 17 -1
20 -10 4 -14 5 -14 3 0 -1 19 -18 29 -29 18z m-67 -29 c0 -9 -13 -14 -40 -13
-36 0 -48 7 -35 19 2 3 20 5 40 6 23 1 35 -4 35 -12z"/>
<path d="M360 686 c0 -8 4 -17 9 -20 5 -4 7 3 4 14 -6 23 -13 26 -13 6z"/>
<path d="M551 683 c-9 -10 -10 -18 -3 -25 7 -7 12 -3 17 12 9 27 4 32 -14 13z"/>
<path d="M1425 690 c-3 -5 3 -10 14 -10 12 0 21 5 21 10 0 6 -6 10 -14 10 -8
0 -18 -4 -21 -10z"/>
<path d="M1180 680 c-13 -8 -12 -10 3 -10 9 0 17 5 17 10 0 12 -1 12 -20 0z"/>
<path d="M1238 683 c7 -3 16 -2 19 1 4 3 -2 6 -13 5 -11 0 -14 -3 -6 -6z"/>
<path d="M2465 680 c33 -3 69 -3 80 1 12 5 -13 7 -60 7 l-80 -1 60 -7z"/>
<path d="M2578 683 c6 -2 18 -2 25 0 6 3 1 5 -13 5 -14 0 -19 -2 -12 -5z"/>
<path d="M266 669 c2 -4 0 -11 -6 -14 -8 -5 -7 -11 1 -21 6 -7 15 -11 20 -8
13 8 7 51 -8 51 -6 0 -10 -4 -7 -8z m11 -24 c0 -8 -4 -12 -9 -9 -5 3 -6 10 -3
15 9 13 12 11 12 -6z"/>
<path d="M699 679 c0 -2 -1 -23 -3 -46 -2 -39 0 -43 21 -43 23 0 23 1 9 22 -9
12 -16 27 -16 33 0 5 4 4 8 -3 7 -10 15 -10 37 -2 22 8 30 8 37 -2 5 -9 8 -6
8 10 0 26 0 26 -36 8 -25 -14 -29 -13 -46 6 -10 12 -18 19 -19 17z"/>
<path d="M963 673 c-32 -3 -41 -8 -36 -19 7 -19 -2 -18 -23 4 -17 16 -18 16
-11 -1 5 -13 3 -17 -5 -14 -7 2 -12 10 -10 16 1 6 -11 11 -27 11 -24 0 -28 -4
-24 -19 4 -15 16 -20 59 -23 30 -1 54 1 54 5 0 5 5 5 10 2 16 -10 12 -38 -5
-32 -8 4 -17 2 -20 -3 -4 -6 20 -10 59 -10 42 0 66 4 66 11 0 7 -10 9 -25 7
-15 -3 -22 -1 -18 5 4 6 -2 8 -15 5 -21 -6 -38 15 -26 33 9 15 27 10 21 -5 -4
-10 0 -14 13 -13 10 1 16 5 13 10 -2 4 1 14 7 22 10 12 10 15 -1 13 -8 -1 -33
-3 -56 -5z"/>
<path d="M1126 663 c-24 -12 -30 -13 -37 -1 -7 10 -9 9 -9 -5 0 -17 7 -18 60
-14 61 4 96 17 48 17 -15 0 -28 4 -30 9 -1 5 -16 3 -32 -6z"/>
<path d="M2310 650 c-9 -6 -10 -10 -3 -10 6 0 15 5 18 10 8 12 4 12 -15 0z"/>
<path d="M147 643 c10 -3 10 -10 2 -25 -6 -11 -8 -22 -5 -25 3 -3 10 6 16 21
13 36 13 36 -7 35 -11 0 -13 -3 -6 -6z"/>
<path d="M525 631 c2 -10 -3 -30 -10 -44 -7 -14 -11 -27 -9 -30 2 -2 -7 -26
-20 -53 -24 -49 -25 -64 -4 -64 6 0 9 2 6 5 -3 3 1 22 9 43 7 20 16 45 20 55
3 9 9 17 14 17 5 0 6 7 2 16 -4 12 -2 15 8 12 18 -6 15 -118 -4 -130 -9 -5 -9
-10 0 -19 9 -9 13 -4 18 22 3 19 9 55 14 81 5 26 6 46 2 44 -3 -2 -14 2 -24 9
-12 8 -14 15 -8 20 15 9 14 22 -3 28 -10 4 -14 0 -11 -12z"/>
<path d="M568 625 c-3 -14 -1 -25 3 -25 5 0 9 11 9 25 0 14 -2 25 -4 25 -2 0
-6 -11 -8 -25z"/>
<path d="M96 623 c-6 -14 -9 -15 -16 -4 -5 10 -8 6 -7 -12 l2 -27 17 23 c10
12 18 25 18 30 0 13 -8 7 -14 -10z"/>
<path d="M1038 633 c6 -2 18 -2 25 0 6 3 1 5 -13 5 -14 0 -19 -2 -12 -5z"/>
<path d="M233 623 c-7 -3 -13 -9 -13 -14 0 -6 4 -8 9 -4 5 3 13 -4 16 -16 10
-29 16 -18 7 12 -4 14 -13 24 -19 22z"/>
<path d="M1208 623 c7 -3 16 -2 19 1 4 3 -2 6 -13 5 -11 0 -14 -3 -6 -6z"/>
<path d="M2118 623 c6 -2 18 -2 25 0 6 3 1 5 -13 5 -14 0 -19 -2 -12 -5z"/>
<path d="M2333 623 c9 -2 25 -2 35 0 9 3 1 5 -18 5 -19 0 -27 -2 -17 -5z"/>
<path d="M200 603 c0 -13 -4 -23 -10 -23 -5 0 -10 -7 -10 -15 0 -13 4 -12 21
4 17 15 19 23 10 38 -10 17 -10 16 -11 -4z"/>
<path d="M777 610 c7 -7 24 -15 39 -16 35 -4 19 12 -21 22 -24 5 -28 4 -18 -6z"/>
<path d="M846 605 c4 -9 19 -15 38 -15 21 0 27 3 17 9 -11 7 -11 9 0 14 8 3
-3 6 -23 6 -29 1 -36 -2 -32 -14z"/>
<path d="M645 566 c-6 -6 -9 -19 -7 -30 2 -10 -1 -23 -6 -28 -6 -6 -7 -22 -1
-41 12 -41 11 -50 -1 -42 -5 3 -10 1 -10 -4 0 -21 21 -11 30 15 13 32 13 43 0
24 -7 -11 -10 -6 -10 20 0 26 3 31 10 20 7 -11 8 -4 5 22 -5 38 9 58 27 40 8
-8 8 -15 0 -25 -9 -10 -9 -21 0 -44 12 -32 15 -32 58 11 27 27 25 36 -4 23
-14 -7 -24 -16 -23 -21 1 -5 -4 -11 -11 -13 -11 -4 -12 -1 -4 13 5 11 7 25 4
33 -3 10 0 12 11 8 9 -3 19 -2 22 3 4 6 0 10 -7 10 -10 0 -10 2 -1 8 6 4 -7 8
-30 8 -23 1 -47 -4 -52 -10z"/>
<path d="M793 573 c-18 -7 -16 -23 2 -23 8 0 15 7 15 15 0 8 -1 15 -2 14 -2 0
-9 -3 -15 -6z"/>
<path d="M830 562 c0 -12 3 -12 15 -2 10 9 15 9 15 1 0 -6 9 -11 21 -11 11 0
17 5 14 10 -3 6 1 10 10 10 9 0 13 -4 10 -10 -4 -6 13 -10 44 -10 34 0 51 4
51 13 0 16 -52 19 -63 4 -6 -9 -10 -9 -14 1 -2 6 -16 12 -29 12 -13 0 -24 -6
-24 -12 0 -9 -3 -10 -8 -2 -10 16 -42 13 -42 -4z"/>
<path d="M1021 558 c0 -16 2 -18 6 -8 3 8 11 18 17 22 7 5 4 8 -6 8 -12 0 -18
-7 -17 -22z"/>
<path d="M750 560 c0 -5 5 -10 10 -10 6 0 10 5 10 10 0 6 -4 10 -10 10 -5 0
-10 -4 -10 -10z"/>
<path d="M40 530 c-9 -6 -10 -10 -3 -10 6 0 15 5 18 10 8 12 4 12 -15 0z"/>
<path d="M268 524 c-4 -14 0 -20 13 -20 10 0 16 2 14 5 -3 2 1 11 8 20 10 14
10 14 -5 3 -13 -10 -17 -10 -20 0 -3 7 -7 4 -10 -8z"/>
<path d="M800 531 c0 -6 4 -13 10 -16 6 -3 7 1 4 9 -7 18 -14 21 -14 7z"/>
<path d="M842 523 c-11 -11 -7 -13 18 -13 16 0 30 5 30 10 0 6 8 10 18 10 14
0 15 -2 2 -10 -12 -8 -11 -10 8 -10 13 0 22 6 22 15 0 19 -80 18 -98 -2z"/>
<path d="M950 525 c0 -10 10 -15 30 -15 20 0 30 5 30 15 0 10 -10 15 -30 15
-20 0 -30 -5 -30 -15z m47 -1 c-3 -3 -12 -4 -19 -1 -8 3 -5 6 6 6 11 1 17 -2
13 -5z"/>
<path d="M1024 518 c-3 -5 9 -8 25 -8 17 0 31 4 31 10 0 11 -49 9 -56 -2z"/>
<path d="M2970 496 c0 -11 -4 -14 -12 -10 -8 5 -9 2 -5 -10 4 -10 7 -25 7 -34
0 -13 2 -14 9 -4 5 9 11 -4 15 -37 4 -29 4 -57 0 -63 -5 -7 -3 -8 5 -4 8 6 10
24 6 59 -3 29 -7 64 -9 80 -3 31 -16 50 -16 23z"/>
<path d="M26 488 c4 -6 -2 -18 -12 -25 -19 -14 -19 -15 0 -11 24 4 42 48 20
48 -9 0 -12 -5 -8 -12z"/>
<path d="M2870 459 c-10 -35 -8 -46 10 -81 15 -29 18 -44 11 -51 -25 -25 -11
-37 40 -37 31 0 48 4 44 10 -3 6 -1 10 4 10 6 0 11 -11 11 -25 0 -16 -6 -25
-16 -25 -8 0 -13 4 -10 9 3 4 -13 7 -37 6 -53 -3 -72 11 -74 55 -2 31 -1 32 6
10 l9 -25 1 28 c1 15 -4 27 -11 27 -7 0 -13 12 -14 28 0 15 -4 40 -9 56 -7 25
-6 28 9 23 9 -4 14 -3 11 2 -3 6 -13 9 -23 8 -17 -1 -17 -6 -5 -76 18 -111 17
-124 -7 -118 -11 3 -18 2 -15 -2 2 -5 -2 -17 -10 -27 -12 -16 -11 -21 2 -36 9
-10 28 -17 42 -17 24 2 24 2 4 6 -13 2 -23 7 -24 11 0 4 -2 15 -4 25 -3 14 1
18 16 14 10 -3 17 -1 13 4 -3 5 0 9 5 9 10 0 14 -11 9 -27 -1 -5 -9 -7 -16 -5
-22 5 -5 -15 18 -21 13 -3 20 0 20 9 0 16 37 38 44 25 8 -13 -4 -20 -22 -14
-14 4 -14 3 -3 -5 11 -8 10 -14 -7 -32 -12 -13 -19 -27 -16 -32 3 -4 1 -8 -4
-8 -6 0 -12 7 -16 15 -3 8 -17 15 -31 15 -16 0 -25 -6 -25 -15 0 -8 4 -15 9
-15 5 0 7 -9 4 -20 -8 -32 -23 -12 -23 30 0 31 -3 38 -15 34 -10 -4 -13 -14
-9 -29 4 -17 0 -24 -18 -28 -21 -6 -21 -5 -5 7 17 13 17 14 0 20 -14 6 -15 9
-4 15 11 7 11 9 0 14 -8 3 -1 6 14 6 16 1 26 5 22 11 -4 6 -10 8 -15 5 -5 -3
-11 -1 -15 5 -3 5 0 10 7 10 9 0 9 3 -2 10 -13 9 -13 10 0 11 8 1 21 1 27 0 8
-1 10 5 7 14 -3 8 -13 15 -22 15 -8 0 -13 3 -10 6 4 3 2 19 -2 35 -5 17 -5 29
1 29 5 0 9 8 9 17 0 9 8 25 18 36 16 19 16 20 -5 8 -13 -6 -23 -22 -24 -34 0
-15 -2 -17 -6 -7 -3 8 -10 17 -14 20 -4 3 -4 22 0 43 7 29 6 37 -5 37 -10 0
-12 -8 -8 -29 4 -17 1 -32 -6 -36 -8 -5 -7 -10 5 -19 23 -17 31 -76 10 -76 -9
0 -13 -4 -10 -10 4 -6 -1 -7 -11 -3 -13 5 -15 2 -9 -17 7 -22 5 -22 -31 -16
-30 5 -35 4 -21 -4 9 -6 15 -15 12 -19 -2 -5 2 -14 10 -21 8 -7 15 -9 15 -5 0
4 6 2 14 -4 11 -9 13 -6 10 19 -2 17 0 29 5 26 5 -3 9 -22 9 -41 0 -20 5 -42
11 -49 9 -10 8 -15 -4 -19 -9 -4 -12 -13 -9 -24 3 -10 2 -14 -3 -8 -4 6 -15
11 -23 13 -8 2 -16 7 -18 12 -5 13 -40 51 -46 51 -24 -3 -33 1 -33 14 0 8 4
15 9 15 4 0 8 -4 8 -8 0 -5 7 -9 16 -9 10 0 14 8 12 26 -3 25 -5 26 -85 27
-72 1 -82 -1 -86 -17 -3 -11 -1 -19 4 -19 5 0 9 5 9 11 0 5 5 7 10 4 6 -3 10
-16 10 -28 0 -18 -2 -19 -11 -7 -8 11 -9 9 -3 -10 8 -32 27 -65 20 -35 -3 11
-1 36 3 55 6 24 9 28 10 13 1 -13 6 -23 11 -23 6 0 10 -5 10 -11 0 -5 -5 -7
-12 -3 -8 5 -9 2 -5 -10 4 -10 7 -22 7 -27 0 -5 16 -9 35 -9 21 0 34 5 33 11
-2 6 5 13 15 14 9 2 17 -3 17 -11 0 -8 7 -14 16 -14 10 0 14 -6 11 -14 -7 -17
60 -33 75 -18 6 6 22 7 42 1 17 -5 47 -9 66 -8 19 0 37 0 40 -1 21 -8 60 -4
60 6 0 8 -15 11 -47 9 -26 -2 -51 2 -57 9 -16 17 -16 46 1 46 8 0 13 -8 11
-17 -2 -12 4 -17 22 -17 20 0 25 5 25 23 0 14 6 26 13 28 16 6 16 -29 0 -45
-9 -9 -8 -12 6 -12 16 0 18 6 13 40 -3 22 -1 43 4 46 5 3 10 -4 10 -15 1 -12
2 -30 3 -40 0 -11 5 -23 10 -28 8 -7 4 46 -5 86 -3 10 4 15 21 15 18 1 26 7
28 25 5 31 -12 48 -31 32 -14 -11 -51 -11 -63 1 -3 4 0 16 6 28 7 13 7 20 2
16 -13 -8 -20 13 -14 36 2 10 9 15 15 11 6 -3 7 -1 3 5 -11 19 -24 14 -29 -10
-3 -14 -5 -9 -6 15 -1 27 3 37 14 37 8 0 15 -5 15 -12 0 -6 3 -8 7 -5 9 9 36
-31 28 -42 -3 -5 -1 -12 5 -16 6 -4 10 4 10 19 0 14 -4 28 -10 31 -5 3 -10 19
-10 36 0 28 -16 36 -32 14 -4 -6 -8 -2 -8 8 0 32 -19 17 -30 -24z m-115 -169
c3 -5 4 -10 1 -10 -2 0 -11 -3 -19 -6 -8 -3 -17 2 -20 10 -7 18 27 23 38 6z
m-183 -65 c2 -25 0 -45 -4 -45 -5 0 -8 13 -8 29 0 16 -3 36 -6 45 -3 9 -2 16
4 16 5 0 12 -20 14 -45z m118 35 c0 -5 -5 -10 -11 -10 -5 0 -7 5 -4 10 3 6 8
10 11 10 2 0 4 -4 4 -10z m-65 -10 c8 -13 -5 -13 -25 0 -13 8 -13 10 2 10 9 0
20 -4 23 -10z"/>
<path d="M779 479 c-6 -4 27 -7 75 -7 47 0 86 4 86 8 0 11 -144 10 -161 -1z"/>
<path d="M950 479 c0 -5 32 -9 70 -9 39 0 70 4 70 9 0 5 -31 9 -70 9 -38 0
-70 -4 -70 -9z"/>
<path d="M2648 472 c-3 -10 -3 -33 0 -51 6 -43 22 -21 22 32 0 38 -14 51 -22
19z"/>
<path d="M724 472 c-6 -4 -14 -16 -18 -27 -7 -20 -8 -20 -22 -1 -8 11 -14 15
-14 10 0 -6 5 -15 10 -20 12 -12 -6 -166 -21 -175 -5 -3 2 -11 16 -17 25 -11
36 -52 14 -52 -5 0 -8 -4 -5 -9 3 -5 -1 -14 -8 -20 -11 -10 -15 -8 -19 6 -4
14 -5 12 -6 -6 -1 -16 3 -22 14 -18 8 4 17 2 19 -2 8 -13 96 -21 299 -28 186
-6 207 -2 172 27 -13 11 -14 10 -9 -4 5 -12 0 -16 -20 -16 -18 0 -24 4 -20 14
3 8 1 17 -5 21 -6 3 -11 13 -11 22 0 11 4 13 13 6 16 -13 74 -16 81 -4 3 5 -1
11 -9 15 -8 3 -15 0 -15 -6 0 -7 -4 -7 -14 1 -11 9 -15 9 -19 -1 -4 -11 -6
-10 -6 0 -1 7 -6 10 -12 6 -7 -4 -10 -1 -7 7 3 8 14 13 26 13 13 -1 19 3 15
12 -8 22 -28 16 -43 -10 -8 -16 -19 -23 -32 -21 -12 3 -16 0 -13 -8 4 -7 -1
-3 -9 7 -16 19 -16 19 -16 -2 0 -24 34 -32 43 -9 3 6 6 2 6 -10 1 -12 6 -23
13 -25 6 -2 9 -9 5 -15 -5 -7 -19 -8 -42 -3 -20 4 -38 4 -41 -1 -3 -5 -15 -9
-27 -8 -21 0 -21 1 -2 9 19 8 19 9 -2 9 -23 1 -40 18 -28 29 3 3 10 0 15 -8
11 -17 13 0 4 24 -5 13 -10 14 -20 5 -10 -8 -13 -5 -11 16 2 23 -2 28 -25 30
-16 2 -28 -1 -28 -7 0 -6 11 -8 25 -6 29 6 31 0 10 -28 -13 -16 -14 -16 -9 -1
3 9 1 17 -5 17 -6 0 -11 -5 -11 -12 0 -6 -12 -1 -26 13 l-27 24 18 -34 c14
-28 21 -32 46 -29 22 4 28 1 25 -9 -3 -7 -1 -13 3 -13 5 0 12 -7 15 -16 5 -14
4 -15 -8 -5 -8 7 -39 12 -68 11 -84 -3 -87 -2 -81 19 4 16 11 18 41 14 l36 -6
-17 27 c-12 17 -16 35 -11 49 9 30 -46 -51 -58 -85 -8 -22 -13 -26 -27 -18
-10 5 -28 6 -41 3 -22 -6 -23 -4 -17 32 7 44 11 49 32 41 11 -4 14 -14 10 -33
-4 -22 -3 -24 4 -8 8 19 9 19 14 -5 3 -17 4 -13 4 13 -1 20 -5 37 -9 37 -4 0
-8 19 -9 43 0 23 -3 35 -6 27 -9 -22 -47 -69 -40 -47 4 9 2 17 -3 17 -6 0 -10
6 -10 14 0 19 38 46 56 39 8 -3 14 0 14 5 0 6 -9 9 -20 7 -12 -2 -27 -2 -35 2
-25 9 -14 88 11 83 5 -1 10 4 13 11 2 8 -2 10 -15 6 -12 -5 -7 4 14 23 28 26
26 43 -4 22z m-14 -156 c0 -3 -4 -8 -10 -11 -5 -3 -10 -1 -10 4 0 6 5 11 10
11 6 0 10 -2 10 -4z"/>
<path d="M500 455 c0 -8 2 -15 4 -15 2 0 6 7 10 15 3 8 1 15 -4 15 -6 0 -10
-7 -10 -15z"/>
<path d="M2680 458 c0 -8 7 -15 15 -15 18 0 15 19 -3 25 -7 2 -12 -3 -12 -10z"/>
<path d="M2749 454 c-12 -14 -11 -16 5 -13 11 2 21 10 24 17 5 17 -13 15 -29
-4z"/>
<path d="M760 451 c-19 -5 -24 -14 -25 -36 0 -23 -4 -29 -18 -27 -14 3 -18 -2
-15 -20 3 -23 3 -23 196 -26 153 -3 192 -1 192 10 0 9 3 9 10 -2 5 -8 7 -23 4
-32 -4 -13 0 -18 17 -18 18 0 20 2 9 15 -16 20 -1 38 23 29 20 -7 22 -30 5
-37 -7 -3 -3 -6 9 -6 25 -1 39 15 21 23 -10 5 -10 7 0 12 14 7 16 34 2 34 -5
0 -10 -4 -10 -8 0 -5 -21 -5 -47 -1 -69 11 -115 11 -108 -1 3 -5 2 -10 -4 -10
-5 0 -12 6 -14 13 -4 10 -6 10 -6 0 -1 -7 -10 -13 -21 -13 -11 0 -20 6 -20 13
0 8 -3 8 -8 2 -6 -10 -110 -11 -157 -2 -11 2 -32 1 -47 -4 -16 -4 -30 -3 -33
2 -4 5 1 9 9 9 9 0 16 4 16 9 0 6 10 8 23 6 21 -4 21 -4 3 10 -19 15 -19 15 4
40 13 14 22 25 19 24 -2 -1 -15 -4 -29 -8z"/>
<path d="M786 439 c-13 -13 -16 -23 -10 -29 7 -7 19 -1 37 18 22 23 24 28 9
29 -9 0 -26 -8 -36 -18z"/>
<path d="M853 454 c4 -4 -1 -13 -11 -20 -14 -11 -15 -13 -1 -14 8 0 21 6 28
13 8 6 11 8 8 2 -3 -6 29 -9 91 -8 54 1 127 3 163 3 51 0 66 3 66 15 0 12 -14
14 -74 12 -40 -1 -73 -6 -73 -10 0 -5 -12 -6 -27 -3 -43 10 -177 17 -170 10z"/>
<path d="M13 433 c-7 -2 -13 -14 -12 -26 0 -22 0 -22 9 1 5 12 12 22 15 22 4
0 3 -4 0 -10 -3 -5 1 -10 10 -10 9 0 15 5 13 12 -5 14 -18 18 -35 11z"/>
<path d="M507 408 c4 -19 3 -20 -7 -8 -9 12 -10 7 -5 -22 4 -29 2 -39 -12 -47
-12 -7 -13 -10 -4 -11 8 0 11 -6 7 -17 -4 -10 4 -5 18 12 17 21 23 40 21 62
-2 18 1 33 7 33 5 0 7 -4 3 -9 -3 -5 -1 -12 4 -15 11 -7 9 13 -2 32 -14 21
-36 14 -30 -10z"/>
<path d="M390 406 c0 -8 7 -16 15 -20 8 -3 15 -1 15 5 0 6 6 7 13 3 8 -5 8 -2
-2 9 -16 21 -41 22 -41 3z"/>
<path d="M2628 370 l4 -49 -31 4 c-17 2 -31 -1 -31 -6 0 -5 9 -9 19 -9 11 0
22 -6 25 -12 3 -10 9 -8 19 5 11 14 16 15 20 5 4 -8 6 -7 6 5 1 9 -3 17 -8 17
-4 0 -8 10 -8 23 -1 51 -3 67 -12 67 -4 0 -6 -22 -3 -50z"/>
<path d="M803 395 c0 -7 18 -12 45 -14 30 -1 43 2 40 10 -5 16 -85 20 -85 4z"/>
<path d="M923 402 c-13 -2 -23 -7 -23 -11 0 -14 179 -8 184 6 3 7 -1 13 -9 13
-8 0 -15 -6 -15 -12 0 -8 -3 -9 -8 -3 -7 10 -82 14 -129 7z"/>
<path d="M1097 403 c-14 -13 -6 -21 18 -19 28 1 35 26 7 26 -10 0 -22 -3 -25
-7z"/>
<path d="M1156 397 c6 -18 44 -19 44 -1 0 8 -10 14 -25 14 -16 0 -23 -5 -19
-13z"/>
<path d="M2680 410 c-10 -32 -7 -40 16 -40 15 0 24 6 24 15 0 18 -20 20 -21 3
0 -7 -4 -4 -9 7 -5 11 -9 18 -10 15z"/>
<path d="M2788 403 c7 -3 16 -2 19 1 4 3 -2 6 -13 5 -11 0 -14 -3 -6 -6z"/>
<path d="M620 373 c-1 -16 -1 -70 0 -120 1 -88 0 -93 -19 -93 -21 0 -29 15
-13 22 5 2 12 18 15 37 6 27 5 31 -6 22 -8 -6 -16 -8 -19 -6 -3 3 -3 -6 -1
-20 3 -14 1 -25 -5 -25 -5 0 -12 -9 -15 -20 -3 -11 -2 -20 2 -20 5 0 13 -10
19 -23 l11 -22 0 22 c1 15 6 21 15 17 14 -5 10 -54 -5 -54 -5 0 -9 -5 -9 -11
0 -17 21 1 32 29 6 15 10 45 9 67 -1 30 1 36 9 25 12 -19 12 -13 1 27 -6 20
-6 35 0 38 15 10 9 135 -7 135 -7 0 -14 -12 -14 -27z m20 -44 c0 -11 -4 -18
-10 -14 -5 3 -7 12 -3 20 7 21 13 19 13 -6z m-13 -61 c-3 -7 -5 -2 -5 12 0 14
2 19 5 13 2 -7 2 -19 0 -25z"/>
<path d="M2772 378 c-15 -15 -16 -52 -2 -43 6 3 10 -1 10 -9 0 -9 4 -16 8 -16
9 0 9 67 0 75 -2 3 -10 -1 -16 -7z"/>
<path d="M47 372 c15 -10 4 -28 -22 -35 -16 -4 -15 -5 6 -6 15 -1 33 -11 42
-23 13 -19 16 -20 16 -6 1 9 8 23 16 32 14 13 13 15 -5 13 -12 -1 -18 -6 -16
-14 3 -7 1 -13 -4 -13 -10 0 -14 21 -11 48 1 6 -6 12 -16 12 -12 0 -14 -3 -6
-8z"/>
<path d="M80 365 c-11 -13 -10 -14 4 -9 9 3 16 10 16 15 0 13 -6 11 -20 -6z"/>
<path d="M115 319 c-4 -6 -5 -12 -2 -15 2 -3 7 2 10 11 7 17 1 20 -8 4z"/>
<path d="M880 323 c0 -5 -15 -7 -34 -5 -25 3 -35 -1 -40 -14 -3 -9 -4 -19 -1
-22 3 -3 5 0 5 6 0 9 40 12 140 12 92 0 140 4 140 11 0 6 -25 10 -62 10 -35
-1 -82 2 -105 5 -24 3 -43 2 -43 -3z m58 -10 c-10 -2 -26 -2 -35 0 -10 3 -2 5
17 5 19 0 27 -2 18 -5z"/>
<path d="M1260 312 c0 -13 9 -19 35 -20 33 -3 46 10 25 23 -5 3 -10 1 -10 -4
0 -6 -7 -11 -16 -11 -14 0 -14 3 -4 15 10 13 9 15 -9 15 -14 0 -21 -6 -21 -18z"/>
<path d="M1335 320 c-8 -14 13 -22 31 -12 14 8 14 10 -5 15 -11 3 -23 1 -26
-3z"/>
<path d="M2490 319 c0 -11 57 -12 64 -1 3 4 -11 9 -30 9 -19 1 -34 -3 -34 -8z"/>
<path d="M7 305 c-4 -8 -2 -17 2 -20 5 -2 11 4 14 15 6 23 -8 27 -16 5z"/>
<path d="M30 280 c0 -11 0 -23 1 -27 0 -3 -6 -10 -15 -15 -20 -11 -21 -35 -2
-35 9 0 17 15 21 36 4 20 11 42 17 49 8 9 6 12 -6 12 -9 0 -16 -8 -16 -20z"/>
<path d="M960 274 c0 -10 17 -14 65 -15 36 0 88 -2 115 -2 37 -2 50 2 50 12 0
10 -12 12 -50 9 -27 -3 -50 -1 -50 3 0 5 -29 8 -65 8 -48 -1 -65 -5 -65 -15z
m37 0 c-3 -3 -12 -4 -19 -1 -8 3 -5 6 6 6 11 1 17 -2 13 -5z m80 0 c-3 -3 -12
-4 -19 -1 -8 3 -5 6 6 6 11 1 17 -2 13 -5z"/>
<path d="M63 238 c-6 -21 -6 -38 -2 -38 5 0 9 8 9 18 0 10 6 27 14 38 11 16
12 21 2 21 -7 0 -17 -18 -23 -39z"/>
<path d="M115 269 c-4 -6 -5 -12 -2 -15 2 -3 7 2 10 11 7 17 1 20 -8 4z"/>
<path d="M790 258 c0 -7 -3 -23 -6 -35 -9 -34 13 -28 32 8 8 17 11 28 5 25 -6
-4 -11 -2 -11 3 0 6 -4 11 -10 11 -5 0 -10 -6 -10 -12z"/>
<path d="M1720 254 c0 -8 5 -12 10 -9 6 4 8 11 5 16 -9 14 -15 11 -15 -7z"/>
<path d="M965 231 c-3 -6 3 -9 14 -8 11 0 17 5 15 9 -7 11 -22 10 -29 -1z"/>
<path d="M1010 231 c0 -6 5 -13 10 -16 6 -3 10 1 10 9 0 9 -4 16 -10 16 -5 0
-10 -4 -10 -9z"/>
<path d="M1040 224 c0 -10 7 -14 22 -12 32 5 35 28 4 28 -17 0 -26 -5 -26 -16z"/>
<path d="M1160 225 c0 -8 7 -15 15 -15 8 0 15 7 15 15 0 8 -7 15 -15 15 -8 0
-15 -7 -15 -15z"/>
<path d="M1202 220 c0 -14 2 -19 5 -12 2 6 2 18 0 25 -3 6 -5 1 -5 -13z"/>
<path d="M1250 218 c1 -22 1 -23 15 -4 8 11 15 15 15 8 0 -6 7 -9 15 -6 21 9
8 24 -21 24 -18 0 -24 -5 -24 -22z"/>
<path d="M1357 220 c-3 -12 4 -15 35 -12 47 5 50 18 4 24 -25 3 -36 0 -39 -12z"/>
<path d="M2978 210 c2 -16 8 -30 12 -30 11 0 5 53 -6 57 -6 2 -9 -9 -6 -27z"/>
<path d="M1326 215 c4 -8 8 -15 10 -15 2 0 4 7 4 15 0 8 -4 15 -10 15 -5 0 -7
-7 -4 -15z"/>
<path d="M414 208 c-4 -7 -14 -24 -22 -38 -14 -24 -14 -24 3 -5 17 20 17 19
12 -8 -2 -15 -1 -30 3 -32 4 -2 6 -17 3 -32 -3 -26 -3 -26 6 -5 13 27 32 28
55 3 24 -26 13 -40 -28 -36 -29 3 -35 0 -39 -21 -2 -13 0 -24 4 -24 5 0 9 8 9
18 0 9 4 13 8 7 4 -5 21 -11 37 -12 22 -2 26 0 15 7 -12 8 -12 10 2 15 10 4
21 4 27 1 5 -4 12 -2 15 3 3 5 23 7 44 4 20 -2 55 2 77 11 39 15 40 15 7 12
-17 -2 -35 -6 -39 -9 -3 -4 -18 -7 -32 -6 -14 0 -20 3 -13 6 21 8 13 23 -13
21 -14 -1 -28 -10 -31 -21 -5 -16 -9 -14 -30 17 -14 20 -33 36 -42 36 -12 0
-18 9 -20 26 -1 14 2 23 7 19 5 -3 12 -1 15 4 4 5 1 13 -5 17 -8 5 -9 3 -4 -6
5 -8 4 -11 -3 -6 -6 4 -9 13 -6 20 7 18 -12 30 -22 14z"/>
<path d="M982 195 c4 -23 29 -27 36 -6 3 9 0 11 -8 6 -7 -4 -16 -2 -22 6 -7
11 -8 9 -6 -6z"/>
<path d="M2440 200 c0 -5 5 -10 10 -10 6 0 10 -7 10 -15 0 -8 7 -15 15 -15 11
0 10 6 -7 25 -24 28 -28 30 -28 15z"/>
<path d="M2696 195 c4 -8 1 -15 -5 -15 -6 0 -11 -4 -11 -10 0 -5 7 -7 15 -4
16 7 21 44 5 44 -5 0 -7 -7 -4 -15z"/>
<path d="M1945 190 c-3 -5 -1 -10 4 -10 6 0 11 5 11 10 0 6 -2 10 -4 10 -3 0
-8 -4 -11 -10z"/>
<path d="M4 179 c-4 -7 -3 -9 4 -5 6 3 13 2 17 -4 3 -5 1 -10 -6 -10 -7 0 -9
-3 -6 -7 4 -3 2 -12 -4 -20 -8 -9 -8 -13 -1 -13 6 0 14 9 17 21 4 11 12 18 19
16 6 -3 13 4 13 14 1 10 -2 19 -8 19 -5 0 -9 -5 -9 -11 0 -8 -4 -8 -14 0 -11
9 -16 9 -22 0z"/>
<path d="M1201 174 c0 -11 3 -14 6 -6 3 7 2 16 -1 19 -3 4 -6 -2 -5 -13z"/>
<path d="M810 161 c0 -5 5 -13 10 -16 6 -3 10 -2 10 4 0 5 -4 13 -10 16 -5 3
-10 2 -10 -4z"/>
<path d="M1038 148 c5 -5 16 -8 23 -6 8 3 3 7 -10 11 -17 4 -21 3 -13 -5z"/>
<path d="M1180 142 c0 -12 4 -22 9 -22 10 0 9 26 -2 36 -4 4 -7 -2 -7 -14z"/>
<path d="M1208 144 c-10 -10 3 -34 18 -34 8 0 14 4 14 9 0 5 28 9 63 9 83 0
100 4 52 11 -22 3 -60 3 -85 0 -25 -4 -48 -3 -51 2 -3 5 -8 7 -11 3z"/>
<path d="M1916 141 c-3 -5 1 -11 9 -15 9 -3 15 0 15 9 0 16 -16 20 -24 6z"/>
<path d="M2410 143 c0 -3 7 -11 15 -19 13 -14 15 -13 15 4 0 10 -7 19 -15 19
-8 0 -15 -2 -15 -4z"/>
<path d="M2460 131 c0 -14 9 -20 34 -23 19 -2 32 0 30 4 -3 4 -17 9 -32 9 -24
2 -24 2 -4 6 30 6 28 23 -3 23 -18 0 -25 -5 -25 -19z"/>
<path d="M336 133 c-4 -5 -12 -8 -18 -8 -6 0 -12 -7 -14 -15 -4 -29 -29 -67
-42 -62 -24 8 -11 -9 14 -18 21 -8 29 -7 41 7 8 10 12 13 9 7 -9 -18 43 -24
60 -7 17 17 19 53 3 53 -7 0 -9 10 -5 26 5 19 3 25 -6 22 -14 -5 -12 -49 3
-59 5 -3 0 -14 -12 -25 -19 -16 -21 -16 -16 -2 3 9 1 19 -6 22 -9 3 -8 8 3 15
9 6 10 11 3 11 -6 0 -21 -16 -33 -36 -12 -19 -24 -33 -27 -31 -7 8 21 62 41
79 12 9 18 19 15 22 -3 3 -9 3 -13 -1z"/>
<path d="M2533 133 c9 -2 25 -2 35 0 9 3 1 5 -18 5 -19 0 -27 -2 -17 -5z"/>
<path d="M2956 128 c19 -34 27 -39 35 -26 5 7 9 18 9 23 0 6 -4 3 -10 -5 -8
-12 -10 -12 -16 3 -3 9 -10 17 -16 17 -5 0 -6 -6 -2 -12z"/>
<path d="M515 119 c4 -5 18 -9 32 -9 32 0 23 12 -12 16 -14 1 -23 -2 -20 -7z"/>
<path d="M660 115 c0 -6 9 -18 20 -28 18 -15 24 -14 21 6 0 4 8 7 20 7 33 0
12 17 -26 22 -21 2 -35 0 -35 -7z"/>
<path d="M123 104 c-4 -12 -14 -14 -37 -10 -20 4 -26 3 -16 -3 8 -5 44 -12 79
-15 36 -3 69 -10 75 -16 7 -7 6 -10 -2 -10 -7 0 -12 -7 -12 -15 0 -8 6 -12 15
-9 8 3 14 9 13 12 -2 22 4 32 22 32 11 0 20 5 20 10 0 6 -9 10 -20 10 -11 0
-20 -4 -20 -10 0 -5 -4 -10 -10 -10 -5 0 -8 6 -6 13 1 6 1 9 -1 6 -7 -11 -88
7 -85 19 3 18 -8 15 -15 -4z"/>
<path d="M630 105 c0 -8 5 -15 10 -15 6 0 10 7 10 15 0 8 -4 15 -10 15 -5 0
-10 -7 -10 -15z"/>
<path d="M1769 110 c-20 -13 -5 -22 21 -12 18 7 20 10 8 14 -8 4 -21 2 -29 -2z"/>
<path d="M1880 110 c0 -6 -4 -8 -10 -5 -5 3 -10 1 -10 -4 0 -6 10 -9 23 -7 12
1 36 -1 53 -6 57 -15 309 -26 322 -13 3 3 -35 5 -84 6 -58 0 -82 3 -69 9 12 5
-10 7 -58 4 -43 -2 -76 0 -73 4 3 5 -9 8 -27 7 -18 -1 -40 2 -49 7 -12 6 -18
5 -18 -2z"/>
<path d="M1445 100 c-16 -7 -17 -9 -3 -9 9 -1 20 4 23 9 7 11 7 11 -20 0z"/>
<path d="M1820 106 c0 -2 7 -6 15 -10 8 -3 15 -1 15 4 0 6 -7 10 -15 10 -8 0
-15 -2 -15 -4z"/>
<path d="M2553 103 c9 -2 23 -2 30 0 6 3 -1 5 -18 5 -16 0 -22 -2 -12 -5z"/>
<path d="M4 89 c-4 -8 0 -9 15 -4 12 4 21 2 21 -4 0 -6 -3 -10 -7 -10 -19 3
-33 -2 -33 -11 0 -6 9 -6 25 0 22 8 27 7 35 -15 10 -27 18 -30 40 -14 12 8 10
9 -7 4 -18 -5 -22 -3 -17 9 6 14 33 11 44 -5 9 -12 80 -19 80 -8 0 6 -9 7 -21
4 -16 -5 -19 -4 -14 5 5 9 4 11 -3 6 -7 -4 -12 -2 -12 3 0 6 -3 10 -7 10 -5
-1 -10 0 -13 1 -3 1 -18 4 -35 6 -16 3 -37 12 -46 20 -19 17 -35 18 -45 3z"/>
<path d="M447 93 c-4 -3 -7 -11 -7 -17 0 -6 5 -5 12 2 6 6 9 14 7 17 -3 3 -9
2 -12 -2z"/>
<path d="M800 84 c-25 -8 -53 -13 -62 -10 -10 2 -22 -2 -28 -9 -8 -9 1 -10 42
-4 29 5 64 13 78 18 14 6 36 12 50 14 21 4 21 4 -5 5 -16 0 -50 -6 -75 -14z"/>
<path d="M1160 96 c0 -9 30 -14 35 -6 4 6 -3 10 -14 10 -12 0 -21 -2 -21 -4z"/>
<path d="M1253 93 c9 -2 23 -2 30 0 6 3 -1 5 -18 5 -16 0 -22 -2 -12 -5z"/>
<path d="M1326 88 c3 -5 10 -6 15 -3 13 9 11 12 -6 12 -8 0 -12 -4 -9 -9z"/>
<path d="M2377 80 c6 -21 29 -26 53 -10 12 8 11 10 -7 10 -13 0 -23 5 -23 10
0 6 -6 10 -14 10 -9 0 -12 -7 -9 -20z"/>
<path d="M2411 95 c3 -2 32 -7 64 -10 41 -3 55 -2 45 5 -14 9 -118 15 -109 5z"/>
<path d="M2562 82 c-8 -5 9 -7 44 -4 47 4 55 2 49 -9 -7 -11 -6 -12 6 -2 8 6
28 10 44 8 17 -3 86 -7 154 -10 68 -3 128 -8 132 -11 5 -3 9 -1 9 4 0 5 -19
12 -42 16 -81 11 -383 17 -396 8z"/>
<path d="M858 73 c7 -3 16 -2 19 1 4 3 -2 6 -13 5 -11 0 -14 -3 -6 -6z"/>
<path d="M1818 72 c-22 -4 -24 -19 -3 -19 8 0 15 5 15 11 0 6 4 5 9 -2 10 -17
61 -19 87 -3 17 10 16 11 -8 5 -15 -3 -40 -2 -55 3 -16 5 -36 7 -45 5z"/>
<path d="M958 63 c7 -3 16 -2 19 1 4 3 -2 6 -13 5 -11 0 -14 -3 -6 -6z"/>
<path d="M1188 63 c7 -3 16 -2 19 1 4 3 -2 6 -13 5 -11 0 -14 -3 -6 -6z"/>
<path d="M1222 65 c7 -7 128 -9 135 -1 3 3 -27 6 -67 6 -40 0 -71 -2 -68 -5z"/>
<path d="M1760 60 c-9 -6 -10 -10 -3 -10 6 0 15 5 18 10 8 12 4 12 -15 0z"/>
<path d="M2290 60 c0 -5 7 -10 16 -10 8 0 12 5 9 10 -3 6 -10 10 -16 10 -5 0
-9 -4 -9 -10z"/>
<path d="M1688 53 c7 -3 16 -2 19 1 4 3 -2 6 -13 5 -11 0 -14 -3 -6 -6z"/>
<path d="M2247 49 c7 -7 15 -10 18 -7 3 3 -2 9 -12 12 -14 6 -15 5 -6 -5z"/>
<path d="M2345 50 c16 -6 13 -9 -20 -13 -22 -2 -8 -3 30 -2 39 2 80 -2 90 -8
21 -11 215 -19 215 -8 0 4 -27 7 -59 8 -32 0 -69 4 -81 8 -15 5 -20 4 -16 -4
11 -17 -30 -13 -45 5 -12 14 -6 16 53 12 36 -1 64 0 61 5 -5 9 -94 8 -156 -2
-26 -4 -50 -4 -53 1 -3 4 -13 8 -22 7 -14 0 -13 -2 3 -9z"/>
<path d="M2670 50 c-12 -8 -10 -10 8 -10 13 0 20 4 17 10 -7 12 -6 12 -25 0z"/>
<path d="M9 40 c-19 -13 -8 -18 21 -10 19 4 21 7 9 12 -9 3 -22 2 -30 -2z"/>
<path d="M1018 38 c6 -6 18 -8 28 -6 14 3 12 5 -9 10 -19 3 -25 2 -19 -4z"/>
<path d="M1455 40 c3 -5 12 -7 20 -3 21 7 19 13 -6 13 -11 0 -18 -4 -14 -10z"/>
<path d="M1518 43 c7 -3 16 -2 19 1 4 3 -2 6 -13 5 -11 0 -14 -3 -6 -6z"/>
<path d="M1988 43 c18 -2 45 -2 60 0 15 2 0 4 -33 4 -33 0 -45 -2 -27 -4z"/>
<path d="M2104 43 c-7 -5 20 -9 58 -10 39 -1 68 1 65 4 -10 9 -111 14 -123 6z"/>
<path d="M2618 43 c7 -3 16 -2 19 1 4 3 -2 6 -13 5 -11 0 -14 -3 -6 -6z"/>
<path d="M560 36 c0 -2 7 -6 15 -10 8 -3 15 -1 15 4 0 6 -7 10 -15 10 -8 0
-15 -2 -15 -4z"/>
<path d="M1204 29 c-26 -6 -25 -7 11 -7 22 -1 55 -3 73 -5 17 -2 32 0 32 4 0
10 -81 15 -116 8z"/>
<path d="M1643 25 c0 -8 4 -12 9 -9 5 3 6 10 3 15 -9 13 -12 11 -12 -6z"/>
<path d="M525 20 c3 -5 8 -10 11 -10 2 0 4 5 4 10 0 6 -5 10 -11 10 -5 0 -7
-4 -4 -10z"/>
<path d="M678 23 c7 -3 16 -2 19 1 4 3 -2 6 -13 5 -11 0 -14 -3 -6 -6z"/>
<path d="M1688 23 c7 -3 16 -2 19 1 4 3 -2 6 -13 5 -11 0 -14 -3 -6 -6z"/>
<path d="M1103 13 c15 -2 37 -2 50 0 12 2 0 4 -28 4 -27 0 -38 -2 -22 -4z"/>
<path d="M1340 14 c37 -8 88 -9 84 -2 -3 4 -26 7 -52 7 -26 -1 -40 -3 -32 -5z"/>
<path d="M1773 13 c9 -2 25 -2 35 0 9 3 1 5 -18 5 -19 0 -27 -2 -17 -5z"/>
<path d="M2697 9 c7 -7 15 -10 18 -7 3 3 -2 9 -12 12 -14 6 -15 5 -6 -5z"/>
<path d="M2757 8 c24 -9 105 -10 120 0 6 4 -22 7 -63 7 -41 0 -67 -3 -57 -7z"/>
<path d="M903 3 c26 -2 67 -2 90 0 23 2 2 3 -48 3 -49 0 -68 -1 -42 -3z"/>
<path d="M1468 3 c17 -2 47 -2 65 0 17 2 3 4 -33 4 -36 0 -50 -2 -32 -4z"/>
<path d="M1888 3 c12 -2 32 -2 45 0 12 2 2 4 -23 4 -25 0 -35 -2 -22 -4z"/>
</g>
</svg>
